<svg width="703" height="569" viewBox="0 0 703 569" fill="none" xmlns="http://www.w3.org/2000/svg">
<g clip-path="url(#clip0_2051_1054)">
<path d="M407.387 12.2529L60.8613 341.835C36.214 365.276 46.1815 406.609 78.8113 416.234L537.499 551.544C570.129 561.176 600.938 531.902 592.956 498.801L480.793 33.9085C472.818 0.843153 432.034 -11.1878 407.387 12.2529Z" fill="#FFF1C9"/>
<path d="M403.931 423.138H253.834C231.049 468.127 219.647 518.018 220.626 568.437L433.755 568.63C432.986 542.019 429.759 515.536 424.116 489.519C419.175 466.888 412.425 444.689 403.931 423.138Z" fill="#F9B800"/>
<path d="M390.822 242.489H270.827V370.402H390.822V242.489Z" fill="#262626"/>
<path d="M343.512 221.176H314.438C305.222 221.176 296.383 217.515 289.866 210.998C283.349 204.481 279.688 195.642 279.688 186.426V149.691C279.688 140.698 283.26 132.073 289.619 125.714C295.978 119.355 304.603 115.783 313.596 115.783H343.391C355.272 115.783 366.666 120.502 375.067 128.903C383.468 137.304 388.187 148.698 388.187 160.579V176.501C388.187 188.35 383.481 199.713 375.102 208.091C366.724 216.469 355.361 221.176 343.512 221.176V221.176Z" fill="#262626"/>
<path d="M379.705 208.896L397.505 150.048C397.753 149.225 398.18 148.468 398.755 147.829C399.329 147.191 400.038 146.687 400.829 146.353C401.621 146.02 402.476 145.865 403.335 145.9C404.193 145.935 405.033 146.159 405.795 146.556L425.016 156.552C425.85 156.986 426.567 157.615 427.106 158.385C427.645 159.155 427.99 160.044 428.112 160.976C428.234 161.909 428.129 162.857 427.807 163.74C427.484 164.623 426.952 165.415 426.258 166.048L379.705 208.896Z" fill="#D3B970"/>
<path d="M375.143 206.589L425.958 174.952C426.748 174.462 427.637 174.155 428.561 174.055C429.485 173.956 430.419 174.065 431.295 174.376C432.171 174.686 432.966 175.19 433.62 175.85C434.275 176.51 434.772 177.308 435.076 178.187L441.816 197.7C442.137 198.627 442.232 199.616 442.095 200.587C441.957 201.558 441.591 202.482 441.026 203.284C440.461 204.085 439.714 204.741 438.846 205.196C437.977 205.652 437.013 205.894 436.033 205.904L375.143 206.589Z" fill="#D3B970"/>
<path d="M390.822 210.852C388.769 210.852 386.762 210.243 385.055 209.102C383.347 207.962 382.017 206.34 381.231 204.443C380.445 202.546 380.24 200.459 380.64 198.445C381.041 196.431 382.029 194.581 383.481 193.13C384.933 191.678 386.783 190.689 388.797 190.288C390.811 189.888 392.898 190.093 394.795 190.879C396.692 191.665 398.313 192.995 399.454 194.703C400.595 196.41 401.204 198.417 401.204 200.47C401.2 203.223 400.105 205.861 398.159 207.807C396.213 209.753 393.574 210.848 390.822 210.852V210.852ZM390.822 192.945C389.334 192.945 387.879 193.386 386.641 194.213C385.404 195.04 384.439 196.215 383.87 197.591C383.3 198.966 383.151 200.479 383.441 201.939C383.732 203.398 384.448 204.739 385.501 205.792C386.553 206.844 387.894 207.561 389.354 207.851C390.814 208.142 392.327 207.993 393.702 207.423C395.077 206.854 396.253 205.889 397.08 204.651C397.906 203.414 398.348 201.959 398.348 200.47C398.344 198.476 397.55 196.564 396.139 195.153C394.729 193.743 392.817 192.949 390.822 192.945Z" fill="#262626"/>
<path d="M372.037 184.677C372.449 180.779 371.31 176.876 368.866 173.812C366.422 170.747 362.87 168.769 358.978 168.305L359.07 158.23C359.121 155.035 358.539 151.861 357.36 148.891C356.181 145.921 354.427 143.213 352.198 140.923C349.97 138.632 347.312 136.804 344.375 135.543C341.439 134.283 338.283 133.614 335.087 133.576L297.959 133.312C293.096 133.306 288.428 135.229 284.98 138.66C281.532 142.09 279.585 146.748 279.567 151.611L279.174 196.958C279.119 200.761 279.815 204.538 281.221 208.072C282.627 211.606 284.716 214.829 287.369 217.555C290.021 220.281 293.185 222.457 296.68 223.96C300.174 225.462 303.931 226.261 307.734 226.31H309.447L309.219 251.443L358.278 251.793L358.549 222.026H358.506L358.728 198.086C362.151 197.724 365.344 196.193 367.769 193.75C370.193 191.307 371.701 188.102 372.037 184.677V184.677Z" fill="white"/>
<path d="M467.492 310.376L408.651 345.062L445.193 420.632C445.193 420.632 461.687 451.948 492.617 437.268C498.858 434.251 504.423 430 508.976 424.772C513.529 419.545 516.975 413.448 519.107 406.852L550.901 310.376C550.901 310.376 597.611 294.518 604.537 253.706C604.804 252.413 604.826 251.081 604.601 249.779C604.248 247.833 603.36 246.023 602.038 244.553C602.512 243.475 602.894 242.36 603.18 241.218C603.823 238.626 604.437 236.099 602.338 233.957C601.464 233.011 600.26 232.438 598.975 232.359C597.69 232.279 596.424 232.698 595.44 233.528C595.926 230.872 595.198 228.53 593.563 227.502C592.89 227.106 592.113 226.924 591.335 226.981C587.644 227.202 584.959 232.265 584.195 233.678C581.068 239.39 574.463 249.051 564.681 262.595C564.681 262.595 578.754 243.51 571.264 238.255C569.03 236.691 566.359 238.883 564.888 240.44C562.168 243.296 561.118 247.244 559.098 250.529C556.434 254.648 552.872 258.112 548.681 260.66C542.076 264.859 534.765 267.086 528.739 272.206C525.995 274.512 523.549 277.15 521.456 280.06C519.007 283.501 518.143 287.564 516.029 291.041L483.321 344.555L467.492 310.376Z" fill="white"/>
<path d="M476.652 442.602C455.446 442.602 444.065 421.56 443.93 421.296L406.802 344.498L468.127 308.349L483.492 341.557L514.794 290.313C515.663 288.803 516.413 287.228 517.036 285.601C517.873 283.371 518.961 281.244 520.278 279.26C522.436 276.246 524.962 273.511 527.796 271.121C531.566 267.908 535.836 265.794 539.934 263.752C542.655 262.466 545.305 261.036 547.874 259.468C551.897 257.045 555.316 253.736 557.87 249.793C558.575 248.598 559.211 247.363 559.776 246.095C560.854 243.803 561.968 241.44 563.839 239.469C567.873 235.185 570.729 236.163 572.071 237.106C572.8 237.62 573.414 238.279 573.876 239.042C574.338 239.805 574.638 240.656 574.756 241.54C574.96 243.106 574.873 244.696 574.499 246.231C578.511 240.369 581.267 236.042 582.931 233.007L582.974 232.915C583.931 231.165 586.837 225.832 591.242 225.575C592.313 225.485 593.384 225.735 594.305 226.289C595.093 226.83 595.744 227.547 596.206 228.383C596.669 229.22 596.93 230.153 596.968 231.108C598.1 230.824 599.286 230.845 600.406 231.17C601.527 231.495 602.541 232.112 603.344 232.957C606.022 235.678 605.208 238.941 604.558 241.561C604.329 242.494 604.036 243.41 603.68 244.303C604.731 245.661 605.475 247.229 605.864 248.901C606.252 250.574 606.274 252.31 605.929 253.992C603.073 271.006 592.67 286.415 575.941 298.503C568.563 303.847 560.523 308.213 552.022 311.49L520.463 407.295C518.262 414.072 514.715 420.335 510.034 425.708C505.354 431.08 499.636 435.452 493.224 438.561C488.071 441.128 482.409 442.509 476.652 442.602V442.602ZM410.507 345.627L446.478 420.011C449.482 425.194 453.478 429.733 458.238 433.37C468.37 440.931 479.729 441.81 492.003 435.976C498.065 433.034 503.469 428.898 507.894 423.816C512.318 418.734 515.67 412.811 517.75 406.402L549.78 309.255L550.458 309.027C550.915 308.87 596.447 292.948 603.144 253.463C603.383 252.333 603.404 251.168 603.209 250.029C602.9 248.344 602.132 246.777 600.988 245.502L600.374 244.788L600.745 243.946C601.188 242.945 601.544 241.908 601.809 240.847C602.473 238.155 602.809 236.435 601.331 234.928C600.716 234.247 599.864 233.828 598.949 233.759C598.034 233.69 597.128 233.976 596.418 234.557L593.291 237.413L594.055 233.257C594.426 231.222 593.934 229.387 592.827 228.709C592.407 228.463 591.92 228.355 591.435 228.402C589.564 228.509 587.565 230.487 585.509 234.264L585.459 234.35C582.495 239.762 576.541 248.63 566.181 262.988L565.859 263.438L563.553 261.753L564.017 261.11C566.873 257.041 572.842 247.28 571.978 241.975C571.92 241.467 571.756 240.977 571.497 240.537C571.237 240.097 570.888 239.716 570.472 239.419C569.044 238.419 566.837 240.483 565.952 241.418C564.396 243.046 563.432 245.11 562.382 247.294C561.765 248.656 561.077 249.983 560.319 251.271C557.549 255.579 553.835 259.2 549.459 261.86C546.791 263.485 544.039 264.965 541.212 266.294C537.057 268.357 533.13 270.3 529.624 273.284C526.991 275.526 524.648 278.088 522.648 280.91C521.457 282.721 520.475 284.661 519.721 286.693C519.037 288.456 518.22 290.165 517.279 291.805L483.178 347.597L466.892 312.411L410.507 345.627Z" fill="#262626"/>
<path d="M357 190.382C356.803 190.392 356.605 190.392 356.407 190.382C355.254 190.264 354.162 189.808 353.268 189.07C352.375 188.332 351.72 187.346 351.386 186.236C351.053 185.126 351.056 183.942 351.396 182.833C351.735 181.725 352.395 180.743 353.293 180.009C354.19 179.276 355.285 178.826 356.439 178.715C357.593 178.604 358.753 178.837 359.774 179.385C360.795 179.934 361.631 180.773 362.175 181.796C362.72 182.819 362.949 183.98 362.833 185.134V185.134C362.687 186.578 362.01 187.917 360.934 188.891C359.858 189.866 358.459 190.407 357.007 190.41L357 190.382ZM357 181.514C356.418 181.514 355.849 181.683 355.362 182C354.874 182.317 354.489 182.769 354.253 183.301C354.017 183.832 353.941 184.421 354.033 184.996C354.125 185.57 354.382 186.105 354.772 186.537C355.162 186.968 355.669 187.277 356.232 187.425C356.794 187.574 357.387 187.557 357.94 187.375C358.493 187.193 358.981 186.855 359.345 186.401C359.709 185.948 359.934 185.398 359.992 184.819V184.819C360.069 184.026 359.83 183.235 359.325 182.618C358.821 182.001 358.093 181.609 357.3 181.528L357 181.514Z" fill="#262626"/>
<path d="M310.09 224.918L339.364 224.204C339.554 224.196 339.741 224.258 339.889 224.377C340.038 224.496 340.139 224.664 340.174 224.851C340.208 225.039 340.174 225.232 340.078 225.396C339.982 225.56 339.83 225.685 339.65 225.746L309.969 236.456L310.09 224.918Z" fill="#262626"/>
<path d="M352.616 186.669C352.261 186.67 351.918 186.54 351.654 186.302C351.39 186.064 351.224 185.737 351.188 185.383C351.027 183.799 351.286 182.2 351.939 180.747C352.592 179.294 353.616 178.039 354.908 177.108C356.149 176.262 357.574 175.725 359.064 175.542C360.555 175.36 362.068 175.537 363.476 176.059C363.658 176.121 363.826 176.22 363.969 176.349C364.112 176.478 364.228 176.635 364.308 176.81C364.389 176.985 364.434 177.174 364.44 177.367C364.445 177.56 364.412 177.752 364.342 177.931C364.271 178.11 364.165 178.274 364.03 178.411C363.895 178.548 363.733 178.657 363.555 178.73C363.377 178.803 363.185 178.84 362.993 178.837C362.8 178.834 362.61 178.793 362.433 178.715C361.469 178.369 360.438 178.254 359.421 178.378C358.405 178.502 357.431 178.862 356.579 179.429C355.695 180.066 354.994 180.925 354.548 181.919C354.102 182.913 353.925 184.007 354.037 185.091C354.056 185.277 354.037 185.466 353.983 185.645C353.929 185.825 353.84 185.992 353.722 186.137C353.603 186.282 353.457 186.403 353.292 186.492C353.126 186.58 352.945 186.636 352.759 186.654L352.616 186.669Z" fill="#262626"/>
<path d="M208.816 306.199L267.657 340.885L231.115 416.455C231.115 416.455 214.614 447.771 183.691 433.091C177.448 430.076 171.882 425.826 167.329 420.598C162.776 415.37 159.331 409.273 157.201 402.675L125.4 306.199C125.4 306.199 78.69 290.341 71.7713 249.529C71.5037 248.236 71.4819 246.904 71.7071 245.602C72.0563 243.658 72.9388 241.848 74.256 240.376C73.7815 239.299 73.3993 238.183 73.1136 237.041C72.471 234.457 71.857 231.922 73.9633 229.78C74.8362 228.836 76.0393 228.265 77.3225 228.185C78.6057 228.105 79.8703 228.523 80.8534 229.352C80.3679 226.695 81.1033 224.354 82.7312 223.325C83.405 222.933 84.1809 222.751 84.9589 222.804C88.6503 223.026 91.3349 228.088 92.0989 229.501C95.2334 235.213 101.838 244.881 111.613 258.418C111.613 258.418 97.5396 239.333 105.029 234.078C107.264 232.515 109.935 234.714 111.413 236.263C114.133 239.119 115.175 243.075 117.196 246.352C119.864 250.468 123.424 253.931 127.613 256.484C134.218 260.682 141.529 262.91 147.562 268.029C150.304 270.337 152.75 272.975 154.845 275.883C157.287 279.324 158.158 283.38 160.272 286.857L192.973 340.371L208.816 306.199Z" fill="white"/>
<path d="M199.656 438.425C193.896 438.338 188.23 436.957 183.077 434.384C176.666 431.275 170.949 426.903 166.27 421.53C161.59 416.157 158.044 409.895 155.845 403.118L124.236 307.313C115.734 304.039 107.693 299.674 100.317 294.326C83.5951 282.245 73.2278 266.83 70.3289 249.765C69.9905 248.092 70.0168 246.365 70.4062 244.703C70.7956 243.041 71.5388 241.482 72.5852 240.133C72.2368 239.238 71.9435 238.322 71.707 237.391C71.0572 234.764 70.279 231.508 72.9208 228.781C73.7253 227.936 74.7392 227.32 75.8592 226.995C76.9793 226.671 78.1654 226.648 79.2968 226.931C79.3365 225.976 79.5979 225.044 80.0601 224.207C80.5223 223.371 81.1727 222.654 81.96 222.112C82.8812 221.559 83.9525 221.309 85.0231 221.398C89.4284 221.662 92.3344 226.988 93.2912 228.738L93.3412 228.831C95.0333 231.922 97.7465 236.199 101.773 242.068C101.396 240.529 101.309 238.934 101.516 237.363C101.632 236.478 101.93 235.627 102.392 234.863C102.854 234.1 103.47 233.441 104.201 232.929C105.543 231.986 108.399 231.044 112.434 235.292C114.297 237.263 115.418 239.633 116.496 241.918C117.058 243.187 117.695 244.422 118.403 245.617C120.945 249.558 124.351 252.869 128.363 255.298C130.934 256.862 133.584 258.292 136.303 259.582C140.429 261.625 144.699 263.745 148.441 266.951C151.275 269.344 153.803 272.077 155.966 275.091C157.281 277.075 158.366 279.202 159.201 281.431C159.83 283.058 160.582 284.636 161.45 286.15L192.759 337.387L208.124 304.179L269.456 340.336L232.328 417.084C232.243 417.376 220.854 438.425 199.656 438.425ZM77.7617 229.58C76.7165 229.6 75.7213 230.031 74.9914 230.78C73.5062 232.286 73.8418 234.014 74.513 236.699C74.7727 237.761 75.1263 238.798 75.5697 239.798L75.941 240.64L75.3341 241.354C74.1844 242.625 73.415 244.194 73.1135 245.881C72.9147 247.002 72.9341 248.151 73.1707 249.265C79.8823 288.835 125.4 304.722 125.864 304.879L126.535 305.107L158.558 402.254C160.636 408.664 163.988 414.589 168.412 419.672C172.836 424.756 178.242 428.892 184.305 431.835C196.607 437.675 207.995 436.783 218.141 429.165C222.885 425.53 226.864 420.995 229.851 415.82L265.794 341.478L209.452 308.263L193.166 343.406L159.065 287.607C158.119 285.969 157.302 284.26 156.623 282.495C155.866 280.464 154.884 278.524 153.696 276.711C151.668 273.91 149.3 271.37 146.648 269.15C143.143 266.166 139.223 264.223 135.067 262.16C132.255 260.83 129.517 259.35 126.863 257.726C122.485 255.066 118.769 251.445 115.996 247.137C115.237 245.852 114.55 244.524 113.94 243.16C112.912 240.976 111.941 238.919 110.37 237.284C109.485 236.349 107.271 234.285 105.843 235.285C105.428 235.583 105.08 235.964 104.82 236.404C104.561 236.844 104.396 237.334 104.337 237.841C103.473 243.146 109.392 252.835 112.284 256.955L112.762 257.619L110.456 259.304L110.134 258.854C99.7529 244.46 93.7981 235.621 90.8564 230.223L90.8065 230.13C88.743 226.353 86.7509 224.382 84.8731 224.268C84.3885 224.225 83.9024 224.332 83.4808 224.575C82.3741 225.289 81.8815 227.088 82.2599 229.13L83.0167 233.279L79.8965 230.423C79.317 229.882 78.5542 229.581 77.7617 229.58V229.58Z" fill="#262626"/>
<path d="M285.686 180.55C287.283 180.55 288.577 179.255 288.577 177.658C288.577 176.061 287.283 174.766 285.686 174.766C284.089 174.766 282.794 176.061 282.794 177.658C282.794 179.255 284.089 180.55 285.686 180.55Z" fill="#262626"/>
<path d="M316.702 180.079C318.299 180.079 319.593 178.784 319.593 177.187C319.593 175.59 318.299 174.295 316.702 174.295C315.105 174.295 313.81 175.59 313.81 177.187C313.81 178.784 315.105 180.079 316.702 180.079Z" fill="#262626"/>
<path d="M297.124 190.446C296.961 190.445 296.799 190.416 296.646 190.36C294.504 189.646 292.362 188.589 292.362 186.719C292.386 186.369 292.479 186.027 292.636 185.714C292.793 185.4 293.01 185.12 293.275 184.891C293.46 184.703 293.634 184.505 293.797 184.298C294.521 183.36 294.955 182.231 295.046 181.049L296.246 168.519C296.282 168.14 296.467 167.791 296.76 167.549C297.053 167.306 297.431 167.19 297.809 167.226C298.188 167.262 298.537 167.447 298.779 167.741C299.022 168.034 299.138 168.411 299.102 168.79L297.888 181.328C297.745 183.042 297.11 184.678 296.06 186.04C295.839 186.326 295.646 186.54 295.482 186.719C296.156 187.118 296.875 187.437 297.624 187.668C297.943 187.779 298.213 187.999 298.385 188.29C298.558 188.581 298.621 188.923 298.565 189.257C298.508 189.59 298.335 189.892 298.077 190.11C297.818 190.328 297.491 190.447 297.153 190.446H297.124Z" fill="#262626"/>
<path d="M301.437 202.926C299.249 202.866 297.115 202.228 295.253 201.077C295.088 200.979 294.944 200.848 294.831 200.693C294.718 200.537 294.637 200.361 294.593 200.174C294.55 199.986 294.544 199.792 294.578 199.603C294.611 199.413 294.682 199.233 294.787 199.072C294.892 198.91 295.028 198.772 295.188 198.665C295.348 198.558 295.527 198.484 295.716 198.448C295.905 198.412 296.099 198.414 296.287 198.455C296.475 198.496 296.653 198.574 296.81 198.685C296.86 198.721 299.801 200.57 302.693 199.935C303.484 199.735 304.226 199.375 304.873 198.877C305.52 198.38 306.059 197.756 306.456 197.043C306.659 196.723 306.98 196.497 307.35 196.414C307.719 196.331 308.107 196.398 308.427 196.6C308.747 196.803 308.973 197.125 309.056 197.494C309.139 197.864 309.072 198.251 308.869 198.571C308.137 199.899 307.06 201.004 305.752 201.771C304.444 202.537 302.953 202.936 301.437 202.926V202.926Z" fill="#262626"/>
<path d="M253.834 423.138L241.339 362.448C239.213 352.128 239.753 341.436 242.91 331.382L270.827 242.482H295.724L301.436 255.163C313.696 282.388 352.552 281.802 363.99 254.227L368.859 242.482H390.822L418.333 332.867C421.883 344.518 422.058 356.936 418.839 368.682L403.931 423.138H253.834Z" fill="#F9B800"/>
<path d="M333.795 154.01H320C315.736 154.01 311.646 152.316 308.631 149.301C305.615 146.285 303.921 142.196 303.921 137.931V127.592H333.795V154.01Z" fill="#262626"/>
<path d="M390.822 242.489L420.146 340.429L475.296 307.892C469.202 296.718 462.432 285.926 455.025 275.576C441.952 257.326 435.176 248.108 423.695 243.446C411.493 238.448 399.233 240.183 390.822 242.489Z" fill="#262626"/>
<path d="M372.115 169.59H347.34C344.951 169.589 342.585 169.118 340.378 168.202C338.171 167.287 336.166 165.946 334.478 164.256C332.789 162.566 331.45 160.56 330.536 158.353C329.623 156.145 329.153 153.779 329.154 151.39V143.165H372.123L372.115 169.59Z" fill="#262626"/>
<path d="M363.362 127.592H320.665V154.017H363.362V127.592Z" fill="#262626"/>
<path d="M383.853 269.114C402.616 269.114 417.826 253.905 417.826 235.142C417.826 216.38 402.616 201.17 383.853 201.17C365.091 201.17 349.881 216.38 349.881 235.142C349.881 253.905 365.091 269.114 383.853 269.114Z" fill="#262626"/>
<path d="M359.021 292.798C372.913 292.798 384.175 281.536 384.175 267.643C384.175 253.751 372.913 242.489 359.021 242.489C345.128 242.489 333.866 253.751 333.866 267.643C333.866 281.536 345.128 292.798 359.021 292.798Z" fill="#262626"/>
<path d="M404.181 294.226C418.073 294.226 429.335 282.964 429.335 269.071C429.335 255.179 418.073 243.917 404.181 243.917C390.289 243.917 379.027 255.179 379.027 269.071C379.027 282.964 390.289 294.226 404.181 294.226Z" fill="#262626"/>
<path d="M352.916 379.534H308.726C302.136 379.527 295.817 376.905 291.158 372.244C286.498 367.583 283.878 361.264 283.872 354.673V324.785C283.872 321.585 285.142 318.515 287.403 316.25C289.664 313.985 292.731 312.71 295.932 312.704H365.711C368.91 312.708 371.977 313.98 374.239 316.243C376.501 318.505 377.774 321.572 377.777 324.771V354.659C377.774 361.253 375.154 367.575 370.492 372.239C365.831 376.903 359.51 379.527 352.916 379.534V379.534ZM295.932 315.56C293.491 315.564 291.151 316.536 289.425 318.262C287.7 319.989 286.73 322.33 286.728 324.771V354.659C286.734 360.492 289.053 366.085 293.177 370.21C297.301 374.336 302.893 376.657 308.726 376.664H352.916C358.75 376.659 364.344 374.338 368.47 370.213C372.595 366.087 374.916 360.493 374.921 354.659V324.785C374.921 322.341 373.951 319.997 372.224 318.267C370.498 316.537 368.155 315.564 365.711 315.56H295.932Z" fill="white"/>
<path d="M379.027 327.034C392.919 327.034 404.181 315.772 404.181 301.88C404.181 287.988 392.919 276.726 379.027 276.726C365.134 276.726 353.873 287.988 353.873 301.88C353.873 315.772 365.134 327.034 379.027 327.034Z" fill="#262626"/>
<path d="M467.277 369.688C467.018 369.687 466.765 369.616 466.543 369.482C466.322 369.348 466.141 369.157 466.02 368.928C465.899 368.699 465.842 368.442 465.856 368.183C465.87 367.925 465.954 367.675 466.099 367.461L482.128 343.777C482.233 343.622 482.368 343.488 482.525 343.385C482.681 343.281 482.857 343.209 483.041 343.173C483.225 343.138 483.415 343.138 483.599 343.176C483.783 343.213 483.958 343.287 484.113 343.392C484.269 343.497 484.402 343.631 484.506 343.788C484.61 343.945 484.681 344.12 484.717 344.304C484.753 344.489 484.752 344.678 484.715 344.862C484.677 345.046 484.604 345.221 484.499 345.377L468.462 369.06C468.331 369.254 468.155 369.413 467.948 369.522C467.742 369.632 467.511 369.689 467.277 369.688Z" fill="#262626"/>
<path d="M586.501 274.862C586.212 274.863 585.931 274.776 585.692 274.613C585.454 274.451 585.271 274.219 585.166 273.95C585.062 273.681 585.041 273.387 585.108 273.106C585.174 272.825 585.324 272.571 585.537 272.377C594.326 264.366 600.374 244.874 600.431 244.681C600.486 244.502 600.576 244.335 600.695 244.19C600.814 244.045 600.961 243.925 601.127 243.837C601.293 243.749 601.474 243.694 601.661 243.676C601.848 243.658 602.037 243.677 602.216 243.732C602.396 243.786 602.563 243.876 602.708 243.995C602.852 244.115 602.972 244.262 603.061 244.427C603.149 244.593 603.203 244.775 603.222 244.962C603.24 245.148 603.221 245.337 603.166 245.517C602.909 246.345 596.833 265.944 587.458 274.491C587.196 274.729 586.855 274.861 586.501 274.862Z" fill="#262626"/>
<path d="M577.626 267.136C577.33 267.138 577.04 267.047 576.798 266.876C576.556 266.706 576.373 266.464 576.274 266.185C576.175 265.906 576.165 265.603 576.246 265.318C576.328 265.033 576.495 264.78 576.726 264.595C584.859 257.997 593.998 233.279 594.091 233.036C594.236 232.703 594.503 232.438 594.838 232.295C595.172 232.152 595.548 232.141 595.889 232.266C596.231 232.391 596.512 232.641 596.675 232.966C596.838 233.291 596.872 233.666 596.768 234.014C596.383 235.064 587.265 259.718 578.526 266.815C578.271 267.022 577.954 267.136 577.626 267.136Z" fill="#262626"/>
<path d="M209.024 365.54C208.792 365.54 208.563 365.483 208.358 365.375C208.152 365.267 207.977 365.11 207.846 364.919L191.809 341.228C191.695 341.073 191.613 340.897 191.569 340.71C191.524 340.523 191.518 340.328 191.551 340.139C191.583 339.949 191.654 339.768 191.758 339.606C191.863 339.445 191.999 339.306 192.158 339.198C192.317 339.09 192.497 339.016 192.686 338.979C192.874 338.942 193.069 338.944 193.257 338.984C193.445 339.024 193.623 339.102 193.78 339.213C193.938 339.324 194.071 339.465 194.172 339.629L210.209 363.312C210.354 363.527 210.438 363.778 210.452 364.037C210.465 364.296 210.408 364.554 210.286 364.783C210.165 365.012 209.983 365.203 209.76 365.337C209.538 365.47 209.283 365.54 209.024 365.54Z" fill="#262626"/>
<path d="M89.7999 270.692C89.446 270.691 89.105 270.559 88.8431 270.321C79.4754 261.753 73.3922 242.175 73.1351 241.347C73.0694 241.165 73.0414 240.972 73.0527 240.778C73.0641 240.585 73.1145 240.397 73.201 240.224C73.2875 240.051 73.4083 239.897 73.5559 239.772C73.7036 239.647 73.8751 239.553 74.0601 239.497C74.2451 239.44 74.4396 239.422 74.6319 239.442C74.8242 239.463 75.0103 239.523 75.1789 239.618C75.3474 239.713 75.495 239.841 75.6125 239.994C75.73 240.148 75.8151 240.324 75.8626 240.512C75.9269 240.704 81.9744 260.197 90.7566 268.215C90.9676 268.409 91.115 268.663 91.1796 268.943C91.2443 269.222 91.2232 269.515 91.1192 269.782C91.0152 270.05 90.8329 270.279 90.5963 270.442C90.3597 270.604 90.0797 270.691 89.7927 270.692H89.7999Z" fill="#262626"/>
<path d="M98.6677 262.96C98.3398 262.959 98.0222 262.846 97.7681 262.638C89.0216 255.548 79.9181 230.887 79.5182 229.844C79.4535 229.668 79.4242 229.481 79.4319 229.293C79.4395 229.106 79.4841 228.921 79.563 228.751C79.6419 228.581 79.7536 228.427 79.8917 228.3C80.0298 228.173 80.1916 228.074 80.3679 228.009C80.5442 227.945 80.7314 227.915 80.9191 227.923C81.1067 227.931 81.2909 227.975 81.4613 228.054C81.6317 228.133 81.7849 228.245 81.9121 228.383C82.0394 228.521 82.1382 228.683 82.2029 228.859C82.2957 229.109 91.4277 253.849 99.5673 260.425C99.7956 260.611 99.9607 260.863 100.04 261.147C100.119 261.431 100.109 261.732 100.011 262.009C99.9121 262.287 99.7302 262.527 99.4898 262.697C99.2494 262.868 98.9622 262.959 98.6677 262.96V262.96Z" fill="#262626"/>
<path d="M327.19 517.994C326.811 517.994 326.448 517.952 326.18 517.878C325.912 517.803 325.762 517.703 325.762 517.597V498.391C325.762 498.286 325.912 498.185 326.18 498.11C326.448 498.036 326.811 497.994 327.19 497.994C327.568 497.994 327.932 498.036 328.199 498.11C328.467 498.185 328.618 498.286 328.618 498.391V517.597C328.618 517.703 328.467 517.803 328.199 517.878C327.932 517.952 327.568 517.994 327.19 517.994Z" fill="white"/>
<path d="M327.19 457.646C326.812 457.646 326.449 457.496 326.181 457.228C325.913 456.96 325.762 456.597 325.762 456.218V423.138C325.762 422.76 325.913 422.397 326.181 422.129C326.449 421.861 326.812 421.71 327.19 421.71C327.569 421.71 327.932 421.861 328.2 422.129C328.468 422.397 328.618 422.76 328.618 423.138V456.218C328.618 456.597 328.468 456.96 328.2 457.228C327.932 457.496 327.569 457.646 327.19 457.646Z" fill="white"/>
<path d="M416.119 459.952C416.036 459.959 415.952 459.959 415.869 459.952C398.226 456.853 389.023 447.1 384.418 439.41C381.398 434.494 379.415 429.013 378.591 423.303C378.573 423.115 378.591 422.926 378.645 422.745C378.7 422.565 378.789 422.397 378.909 422.251C379.028 422.105 379.175 421.984 379.341 421.895C379.507 421.806 379.689 421.75 379.877 421.732C380.064 421.713 380.253 421.731 380.434 421.786C380.614 421.84 380.782 421.93 380.928 422.049C381.074 422.168 381.195 422.315 381.284 422.481C381.373 422.647 381.429 422.829 381.447 423.017V423.017C382.272 428.329 384.14 433.425 386.945 438.011C393.214 448.35 403.117 454.776 416.383 457.11C416.762 457.143 417.113 457.324 417.358 457.615C417.603 457.905 417.722 458.281 417.69 458.66C417.658 459.039 417.476 459.389 417.186 459.634C416.895 459.879 416.519 459.999 416.141 459.966L416.119 459.952Z" fill="white"/>
<path d="M244.288 461.851C242.156 461.844 240.026 461.704 237.912 461.43C237.533 461.382 237.189 461.185 236.956 460.883C236.722 460.581 236.618 460.199 236.666 459.82C236.714 459.441 236.911 459.097 237.213 458.864C237.515 458.63 237.897 458.526 238.276 458.574C248.9 459.938 257.454 457.81 263.702 452.269C275.247 442.024 275.24 423.317 275.24 423.131C275.24 422.752 275.39 422.389 275.658 422.121C275.926 421.854 276.289 421.703 276.668 421.703C277.047 421.703 277.41 421.854 277.678 422.121C277.946 422.389 278.096 422.752 278.096 423.131C278.096 423.945 278.096 443.294 265.608 454.411C260.039 459.359 252.885 461.851 244.288 461.851Z" fill="white"/>
<path d="M200.291 305.086L243.374 329.904L270.827 242.489C270.827 242.489 232.764 231.879 200.291 305.086Z" fill="#262626"/>
<path d="M218.048 217.492H107.378C101.834 217.487 96.5176 215.281 92.5969 211.361C88.6762 207.44 86.471 202.124 86.4654 196.579V108.043C86.4616 105.292 87.0001 102.567 88.05 100.025C89.0999 97.482 90.6407 95.1711 92.5843 93.2243C94.5279 91.2774 96.8361 89.7327 99.377 88.6784C101.918 87.6241 104.642 87.081 107.393 87.0801H218.063C223.607 87.0857 228.923 89.2909 232.844 93.2116C236.765 97.1324 238.97 102.448 238.976 107.993V196.529C238.98 199.28 238.441 202.005 237.391 204.548C236.341 207.09 234.8 209.401 232.857 211.348C230.913 213.295 228.605 214.84 226.064 215.894C223.523 216.948 220.799 217.491 218.048 217.492V217.492ZM107.393 89.9361C102.605 89.9417 98.0158 91.846 94.6307 95.2311C91.2456 98.6163 89.3413 103.206 89.3356 107.993V196.529C89.3413 201.316 91.2456 205.906 94.6307 209.291C98.0158 212.676 102.605 214.581 107.393 214.586H218.063C222.851 214.582 227.441 212.679 230.827 209.293C234.212 205.908 236.116 201.317 236.12 196.529V107.993C236.116 103.203 234.21 98.6099 230.822 95.224C227.433 91.8381 222.839 89.9361 218.048 89.9361H107.393Z" fill="#262626"/>
<path d="M226.338 137.638H188.867C188.488 137.638 188.125 137.488 187.857 137.22C187.59 136.952 187.439 136.589 187.439 136.21C187.439 135.831 187.59 135.468 187.857 135.2C188.125 134.933 188.488 134.782 188.867 134.782H226.338C226.717 134.782 227.08 134.933 227.348 135.2C227.615 135.468 227.766 135.831 227.766 136.21C227.766 136.589 227.615 136.952 227.348 137.22C227.08 137.488 226.717 137.638 226.338 137.638Z" fill="#262626"/>
<path d="M226.338 152.39H188.867C188.488 152.39 188.125 152.239 187.857 151.971C187.59 151.704 187.439 151.34 187.439 150.962C187.439 150.583 187.59 150.22 187.857 149.952C188.125 149.684 188.488 149.534 188.867 149.534H226.338C226.717 149.534 227.08 149.684 227.348 149.952C227.615 150.22 227.766 150.583 227.766 150.962C227.766 151.34 227.615 151.704 227.348 151.971C227.08 152.239 226.717 152.39 226.338 152.39Z" fill="#262626"/>
<path d="M216.563 167.134H188.867C188.488 167.134 188.125 166.983 187.857 166.715C187.59 166.448 187.439 166.084 187.439 165.706C187.439 165.327 187.59 164.964 187.857 164.696C188.125 164.428 188.488 164.278 188.867 164.278H216.563C216.942 164.278 217.305 164.428 217.573 164.696C217.841 164.964 217.991 165.327 217.991 165.706C217.991 166.084 217.841 166.448 217.573 166.715C217.305 166.983 216.942 167.134 216.563 167.134Z" fill="#262626"/>
<path d="M167.44 181.164H118.524L114.062 165.456H170.468L167.44 181.164ZM120.652 178.308H165.084L166.99 168.312H117.81L120.652 178.308Z" fill="#262626"/>
<path d="M143.471 181.164C143.092 181.164 142.729 181.013 142.461 180.746C142.194 180.478 142.043 180.115 142.043 179.736V166.884C142.043 166.505 142.194 166.142 142.461 165.874C142.729 165.606 143.092 165.456 143.471 165.456C143.85 165.456 144.213 165.606 144.481 165.874C144.749 166.142 144.899 166.505 144.899 166.884V179.736C144.899 180.115 144.749 180.478 144.481 180.746C144.213 181.013 143.85 181.164 143.471 181.164Z" fill="#262626"/>
<path d="M164.841 183.656C166.986 183.656 168.725 181.901 168.725 179.736C168.725 177.571 166.986 175.816 164.841 175.816C162.696 175.816 160.957 177.571 160.957 179.736C160.957 181.901 162.696 183.656 164.841 183.656Z" fill="#262626"/>
<path d="M143.443 183.656C145.607 183.656 147.362 181.901 147.362 179.736C147.362 177.571 145.607 175.816 143.443 175.816C141.278 175.816 139.523 177.571 139.523 179.736C139.523 181.901 141.278 183.656 143.443 183.656Z" fill="#262626"/>
<path d="M121.059 183.656C123.2 183.656 124.936 181.901 124.936 179.736C124.936 177.571 123.2 175.816 121.059 175.816C118.917 175.816 117.182 177.571 117.182 179.736C117.182 181.901 118.917 183.656 121.059 183.656Z" fill="#262626"/>
<path d="M108.385 139.959C108.164 139.96 107.946 139.909 107.748 139.811C107.549 139.713 107.377 139.571 107.243 139.395L99.2461 128.82C98.8765 128.328 98.6513 127.742 98.5956 127.128C98.54 126.515 98.6561 125.898 98.931 125.347C99.2058 124.796 99.6286 124.332 100.152 124.007C100.676 123.682 101.279 123.51 101.895 123.508H126.321C127.264 123.509 128.193 123.733 129.032 124.162C129.871 124.592 130.596 125.214 131.148 125.979L142.186 137.51C142.415 137.788 142.531 138.142 142.51 138.502C142.489 138.862 142.333 139.2 142.073 139.45C141.812 139.699 141.468 139.841 141.107 139.847C140.747 139.852 140.398 139.721 140.13 139.481L128.841 127.707C128.557 127.293 128.177 126.954 127.733 126.72C127.289 126.487 126.794 126.364 126.292 126.364H101.866C101.78 126.363 101.695 126.386 101.622 126.432C101.548 126.477 101.489 126.543 101.452 126.621C101.414 126.697 101.398 126.782 101.406 126.867C101.413 126.951 101.444 127.032 101.495 127.1L109.521 137.667C109.635 137.816 109.719 137.987 109.767 138.169C109.815 138.35 109.827 138.54 109.802 138.726C109.777 138.913 109.715 139.093 109.62 139.255C109.525 139.418 109.399 139.56 109.249 139.673C109 139.86 108.697 139.96 108.385 139.959Z" fill="#262626"/>
<path d="M143.471 168.626H170.132L176.786 138.766C176.889 138.293 176.884 137.802 176.772 137.331C176.659 136.859 176.442 136.42 176.136 136.044C175.83 135.668 175.443 135.366 175.005 135.16C174.566 134.954 174.087 134.849 173.602 134.854H143.471V168.626Z" fill="#FFE18B"/>
<path d="M114.597 168.626H143.471V134.854H107.814C107.284 134.852 106.761 134.977 106.289 135.218C105.817 135.459 105.409 135.808 105.099 136.238C104.789 136.668 104.586 137.166 104.507 137.69C104.428 138.214 104.475 138.75 104.644 139.252L114.597 168.626Z" fill="#FFE18B"/>
<path d="M143.471 164.649C143.092 164.649 142.729 164.499 142.461 164.231C142.194 163.963 142.043 163.6 142.043 163.221V138.488C142.043 138.109 142.194 137.746 142.461 137.478C142.729 137.211 143.092 137.06 143.471 137.06C143.85 137.06 144.213 137.211 144.481 137.478C144.749 137.746 144.899 138.109 144.899 138.488V163.192C144.903 163.382 144.869 163.571 144.799 163.748C144.729 163.924 144.624 164.085 144.491 164.221C144.358 164.356 144.2 164.464 144.024 164.538C143.849 164.611 143.661 164.649 143.471 164.649Z" fill="#262626"/>
<path d="M132.247 455.104H86.3939C84.0994 455.102 81.8994 454.19 80.2769 452.567C78.6545 450.945 77.7421 448.745 77.7402 446.45V400.605C77.744 398.311 78.6572 396.113 80.2794 394.492C81.9017 392.871 84.1006 391.96 86.3939 391.958H132.233C134.527 391.96 136.727 392.872 138.35 394.495C139.972 396.117 140.885 398.317 140.886 400.612V446.458C140.883 448.748 139.971 450.944 138.352 452.565C136.733 454.186 134.538 455.099 132.247 455.104V455.104ZM86.3939 394.814C84.8569 394.816 83.3833 395.427 82.2964 396.514C81.2096 397.601 80.5981 399.075 80.5962 400.612V446.458C80.5981 447.995 81.2096 449.468 82.2964 450.555C83.3833 451.642 84.8569 452.253 86.3939 452.255H132.233C133.77 452.253 135.243 451.642 136.33 450.555C137.417 449.468 138.029 447.995 138.03 446.458V400.605C138.029 399.067 137.417 397.594 136.33 396.507C135.243 395.42 133.77 394.809 132.233 394.807L86.3939 394.814Z" fill="#262626"/>
<path d="M98.9748 418.526C97.5507 418.527 96.1582 418.106 94.9736 417.316C93.7889 416.526 92.8653 415.402 92.3197 414.086C91.7741 412.771 91.631 411.323 91.9085 409.926C92.1859 408.53 92.8715 407.247 93.8785 406.24C94.8855 405.233 96.1685 404.547 97.5653 404.27C98.9621 403.992 100.41 404.135 101.725 404.681C103.041 405.226 104.164 406.15 104.955 407.335C105.745 408.519 106.166 409.912 106.165 411.336C106.163 413.242 105.405 415.07 104.057 416.418C102.709 417.766 100.881 418.524 98.9748 418.526V418.526ZM98.9748 406.995C98.1159 406.993 97.2759 407.247 96.561 407.723C95.8462 408.199 95.2887 408.876 94.959 409.67C94.6293 410.463 94.5424 411.336 94.7091 412.178C94.8758 413.021 95.2886 413.795 95.8955 414.403C96.5023 415.011 97.2758 415.425 98.1181 415.593C98.9604 415.761 99.8336 415.676 100.627 415.347C101.421 415.019 102.099 414.462 102.577 413.748C103.054 413.034 103.309 412.195 103.309 411.336C103.309 410.186 102.852 409.083 102.04 408.269C101.227 407.455 100.125 406.997 98.9748 406.995V406.995Z" fill="#262626"/>
<path d="M119.681 440.624C118.259 440.624 116.869 440.203 115.686 439.413C114.504 438.623 113.582 437.5 113.038 436.186C112.494 434.872 112.351 433.426 112.629 432.032C112.906 430.637 113.591 429.356 114.597 428.35C115.602 427.345 116.883 426.66 118.278 426.383C119.673 426.105 121.118 426.248 122.432 426.792C123.746 427.336 124.869 428.257 125.659 429.44C126.449 430.622 126.871 432.012 126.871 433.434C126.869 435.341 126.111 437.168 124.763 438.516C123.415 439.864 121.587 440.622 119.681 440.624V440.624ZM119.681 429.1C118.824 429.1 117.986 429.355 117.273 429.831C116.56 430.307 116.005 430.984 115.677 431.776C115.349 432.568 115.263 433.439 115.43 434.28C115.597 435.121 116.01 435.893 116.616 436.499C117.222 437.105 117.994 437.518 118.835 437.685C119.676 437.852 120.547 437.766 121.339 437.438C122.131 437.11 122.808 436.555 123.284 435.842C123.761 435.129 124.015 434.292 124.015 433.434C124.017 432.864 123.906 432.299 123.689 431.771C123.472 431.244 123.153 430.764 122.75 430.361C122.348 429.957 121.869 429.636 121.343 429.417C120.816 429.199 120.251 429.086 119.681 429.086V429.1Z" fill="#262626"/>
<path d="M95.6761 444.858C95.424 444.853 95.1777 444.782 94.9621 444.651C94.6388 444.456 94.4062 444.14 94.3152 443.773C94.2242 443.407 94.2823 443.019 94.4766 442.695L118.453 402.889C118.649 402.564 118.966 402.331 119.334 402.24C119.702 402.149 120.091 402.208 120.416 402.404C120.741 402.6 120.975 402.917 121.066 403.285C121.157 403.653 121.098 404.042 120.902 404.367L96.9256 444.166C96.7965 444.381 96.613 444.558 96.3937 444.679C96.1743 444.801 95.9269 444.863 95.6761 444.858V444.858Z" fill="#262626"/>
<path d="M641.115 468.22H578.997C574.769 468.217 570.716 466.536 567.727 463.546C564.738 460.557 563.057 456.504 563.053 452.277V329.347C563.061 325.127 564.739 321.082 567.722 318.097C570.705 315.112 574.748 313.429 578.968 313.418H641.086C645.314 313.422 649.367 315.103 652.356 318.092C655.345 321.081 657.026 325.134 657.03 329.362V452.277C657.024 456.499 655.347 460.546 652.364 463.534C649.381 466.522 645.337 468.207 641.115 468.22V468.22ZM578.968 316.274C575.498 316.278 572.172 317.658 569.718 320.111C567.264 322.565 565.884 325.892 565.881 329.362V452.277C565.884 455.747 567.264 459.073 569.718 461.527C572.172 463.98 575.498 465.361 578.968 465.364H641.086C644.556 465.361 647.883 463.98 650.336 461.527C652.79 459.073 654.17 455.747 654.174 452.277V329.347C654.166 325.885 652.789 322.566 650.342 320.116C647.894 317.667 644.577 316.285 641.115 316.274H578.968Z" fill="#262626"/>
<path d="M629.013 405.074H591.071C587.419 405.074 584.459 408.034 584.459 411.686V434.598C584.459 438.25 587.419 441.21 591.071 441.21H629.013C632.664 441.21 635.624 438.25 635.624 434.598V411.686C635.624 408.034 632.664 405.074 629.013 405.074Z" fill="#FFE18B"/>
<path d="M634.289 419.461H585.901C585.522 419.461 585.159 419.311 584.891 419.043C584.624 418.775 584.473 418.412 584.473 418.033C584.473 417.654 584.624 417.291 584.891 417.023C585.159 416.756 585.522 416.605 585.901 416.605H634.289C634.668 416.605 635.031 416.756 635.299 417.023C635.566 417.291 635.717 417.654 635.717 418.033C635.717 418.412 635.566 418.775 635.299 419.043C635.031 419.311 634.668 419.461 634.289 419.461Z" fill="#262626"/>
<path d="M600.817 436.754H594.612C593.296 436.705 592.05 436.147 591.136 435.199C590.222 434.25 589.712 432.984 589.712 431.667C589.712 430.35 590.222 429.084 591.136 428.135C592.05 427.187 593.296 426.629 594.612 426.58H600.817C602.133 426.629 603.379 427.187 604.293 428.135C605.206 429.084 605.717 430.35 605.717 431.667C605.717 432.984 605.206 434.25 604.293 435.199C603.379 436.147 602.133 436.705 600.817 436.754V436.754ZM594.612 429.436C594.042 429.468 593.506 429.717 593.114 430.132C592.722 430.547 592.504 431.096 592.504 431.667C592.504 432.238 592.722 432.787 593.114 433.202C593.506 433.617 594.042 433.866 594.612 433.898H600.817C601.387 433.866 601.923 433.617 602.315 433.202C602.707 432.787 602.925 432.238 602.925 431.667C602.925 431.096 602.707 430.547 602.315 430.132C601.923 429.717 601.387 429.468 600.817 429.436H594.612Z" fill="#262626"/>
<path d="M631.162 340.986H588.836C585.184 340.986 582.224 343.946 582.224 347.597V370.51C582.224 374.161 585.184 377.121 588.836 377.121H631.162C634.813 377.121 637.773 374.161 637.773 370.51V347.597C637.773 343.946 634.813 340.986 631.162 340.986Z" fill="#F9B800"/>
<path d="M609.999 368.182C608.188 368.182 606.419 367.645 604.913 366.639C603.408 365.633 602.235 364.204 601.542 362.531C600.849 360.859 600.668 359.018 601.021 357.242C601.374 355.467 602.246 353.836 603.526 352.556C604.806 351.276 606.437 350.404 608.213 350.051C609.989 349.697 611.829 349.879 613.502 350.572C615.174 351.264 616.604 352.438 617.61 353.943C618.615 355.448 619.152 357.218 619.152 359.028C619.15 361.455 618.185 363.782 616.469 365.499C614.753 367.215 612.426 368.18 609.999 368.182V368.182ZM609.999 352.731C608.753 352.731 607.536 353.1 606.5 353.792C605.464 354.484 604.657 355.468 604.181 356.618C603.704 357.769 603.579 359.035 603.822 360.257C604.065 361.478 604.665 362.601 605.546 363.481C606.426 364.362 607.549 364.962 608.77 365.205C609.992 365.448 611.258 365.323 612.409 364.846C613.559 364.37 614.543 363.563 615.235 362.527C615.927 361.491 616.296 360.274 616.296 359.028C616.294 357.359 615.63 355.758 614.45 354.577C613.269 353.397 611.668 352.733 609.999 352.731Z" fill="#262626"/>
<path d="M587.458 368.182H582.224V365.326H587.458C588.853 365.169 590.142 364.503 591.079 363.456C592.015 362.409 592.532 361.054 592.532 359.649C592.532 358.245 592.015 356.89 591.079 355.843C590.142 354.795 588.853 354.13 587.458 353.973H582.224V351.117H587.458C589.586 351.312 591.564 352.295 593.005 353.874C594.446 355.452 595.244 357.512 595.244 359.649C595.244 361.787 594.446 363.847 593.005 365.425C591.564 367.004 589.586 367.987 587.458 368.182V368.182Z" fill="#262626"/>
<path d="M637.859 368.225H632.604C630.468 368.039 628.479 367.059 627.03 365.479C625.581 363.899 624.777 361.833 624.777 359.689C624.777 357.545 625.581 355.479 627.03 353.898C628.479 352.318 630.468 351.338 632.604 351.153H637.838V354.009H632.604C631.202 354.158 629.904 354.821 628.962 355.87C628.019 356.918 627.497 358.279 627.497 359.689C627.497 361.099 628.019 362.459 628.962 363.508C629.904 364.556 631.202 365.219 632.604 365.369H637.838L637.859 368.225Z" fill="#262626"/>
<path d="M647.427 222.604H472.432C466.962 222.589 461.719 220.41 457.851 216.542C453.982 212.675 451.8 207.433 451.783 201.963V94.7341C451.799 89.2623 453.979 84.0189 457.848 80.1498C461.717 76.2806 466.961 74.1003 472.432 74.0852H647.427C652.898 74.1003 658.142 76.2806 662.011 80.1498C665.88 84.0189 668.06 89.2623 668.075 94.7341V201.963C668.059 207.433 665.877 212.675 662.008 216.542C658.139 220.41 652.897 222.589 647.427 222.604V222.604ZM472.432 76.9483C467.718 76.9634 463.201 78.8428 459.868 82.1764C456.534 85.5099 454.655 90.0269 454.639 94.7412V201.963C454.645 206.679 456.522 211.201 459.858 214.535C463.193 217.87 467.716 219.745 472.432 219.748H647.427C652.143 219.745 656.666 217.87 660.001 214.535C663.337 211.201 665.214 206.679 665.219 201.963V94.7341C665.204 90.0198 663.325 85.5028 659.991 82.1693C656.658 78.8357 652.141 76.9563 647.427 76.9412L472.432 76.9483Z" fill="#262626"/>
<path d="M542.854 102.817H487.919C482.26 102.817 477.673 107.404 477.673 113.063V177.565C477.673 183.224 482.26 187.811 487.919 187.811H542.854C548.513 187.811 553.1 183.224 553.1 177.565V113.063C553.1 107.404 548.513 102.817 542.854 102.817Z" fill="#FFE18B"/>
<path d="M516.814 148.348H513.958V187.818H516.814V148.348Z" fill="#262626"/>
<path d="M586.208 104.602H572.914C570.922 104.602 569.308 106.216 569.308 108.207V121.502C569.308 123.493 570.922 125.108 572.914 125.108H586.208C588.2 125.108 589.814 123.493 589.814 121.502V108.207C589.814 106.216 588.2 104.602 586.208 104.602Z" fill="#F9B800"/>
<path d="M614.968 104.602H601.674C599.682 104.602 598.068 106.216 598.068 108.207V121.502C598.068 123.493 599.682 125.108 601.674 125.108H614.968C616.96 125.108 618.574 123.493 618.574 121.502V108.207C618.574 106.216 616.96 104.602 614.968 104.602Z" fill="#F9B800"/>
<path d="M643.735 104.602H630.441C628.449 104.602 626.835 106.216 626.835 108.207V121.502C626.835 123.493 628.449 125.108 630.441 125.108H643.735C645.727 125.108 647.341 123.493 647.341 121.502V108.207C647.341 106.216 645.727 104.602 643.735 104.602Z" fill="#F9B800"/>
<path d="M647.348 145.214H570.729C570.35 145.214 569.987 145.063 569.719 144.796C569.451 144.528 569.301 144.165 569.301 143.786C569.301 143.407 569.451 143.044 569.719 142.776C569.987 142.508 570.35 142.358 570.729 142.358H647.348C647.727 142.358 648.09 142.508 648.358 142.776C648.626 143.044 648.776 143.407 648.776 143.786C648.776 144.165 648.626 144.528 648.358 144.796C648.09 145.063 647.727 145.214 647.348 145.214Z" fill="#262626"/>
<path d="M647.348 160.329H570.729C570.35 160.329 569.987 160.179 569.719 159.911C569.451 159.643 569.301 159.28 569.301 158.901C569.301 158.522 569.451 158.159 569.719 157.891C569.987 157.624 570.35 157.473 570.729 157.473H647.348C647.727 157.473 648.09 157.624 648.358 157.891C648.626 158.159 648.776 158.522 648.776 158.901C648.776 159.28 648.626 159.643 648.358 159.911C648.09 160.179 647.727 160.329 647.348 160.329Z" fill="#262626"/>
<path d="M620.68 175.445H570.7C570.321 175.445 569.958 175.294 569.69 175.026C569.423 174.759 569.272 174.395 569.272 174.017C569.272 173.638 569.423 173.275 569.69 173.007C569.958 172.739 570.321 172.589 570.7 172.589H620.68C621.059 172.589 621.422 172.739 621.69 173.007C621.958 173.275 622.108 173.638 622.108 174.017C622.108 174.395 621.958 174.759 621.69 175.026C621.422 175.294 621.059 175.445 620.68 175.445Z" fill="#262626"/>
<path d="M529.609 148.348H500.992C500.693 148.348 500.396 148.289 500.119 148.174C499.842 148.059 499.591 147.891 499.379 147.679C499.168 147.466 499 147.214 498.886 146.937C498.772 146.66 498.714 146.363 498.715 146.063V131.591C498.715 131.248 498.851 130.919 499.093 130.677C499.335 130.435 499.664 130.298 500.007 130.298H530.588C530.758 130.297 530.927 130.33 531.084 130.395C531.242 130.459 531.385 130.554 531.506 130.674C531.627 130.794 531.723 130.937 531.788 131.094C531.853 131.252 531.887 131.42 531.887 131.591V146.063C531.888 146.363 531.83 146.66 531.716 146.937C531.602 147.214 531.434 147.466 531.222 147.679C531.011 147.891 530.759 148.059 530.483 148.174C530.206 148.289 529.909 148.348 529.609 148.348Z" fill="#FFBB45"/>
<path d="M515.301 135.482C524.461 135.482 531.887 133.161 531.887 130.298C531.887 127.436 524.461 125.115 515.301 125.115C506.141 125.115 498.715 127.436 498.715 130.298C498.715 133.161 506.141 135.482 515.301 135.482Z" fill="#262626"/>
<path d="M401.689 424.566H256.033C255.654 424.566 255.291 424.416 255.023 424.148C254.756 423.88 254.605 423.517 254.605 423.138C254.605 422.76 254.756 422.397 255.023 422.129C255.291 421.861 255.654 421.71 256.033 421.71H401.689C402.068 421.71 402.431 421.861 402.699 422.129C402.967 422.397 403.117 422.76 403.117 423.138C403.117 423.517 402.967 423.88 402.699 424.148C402.431 424.416 402.068 424.566 401.689 424.566Z" fill="white"/>
</g>
<defs>
<clipPath id="clip0_2051_1054">
<rect width="703" height="569" fill="white"/>
</clipPath>
</defs>
</svg>
