<svg width="714" height="491" viewBox="0 0 714 491" fill="none" xmlns="http://www.w3.org/2000/svg">
<g clip-path="url(#clip0_2006_737)">
<path d="M297.345 90.0715L69.9578 490.747H656.209L440.51 90.0715H297.345Z" fill="#FFE18B"/>
<path d="M488.098 266.244C491.226 259.904 492.872 252.935 492.911 245.865C492.949 238.795 491.38 231.809 488.321 225.435C485.263 219.061 480.794 213.466 475.255 209.073C469.715 204.68 463.249 201.604 456.346 200.078C453.373 199.427 450.659 197.908 448.549 195.715V195.679C444.508 191.452 443.815 187.661 438.082 176.173C437.468 174.93 436.954 173.931 436.654 173.36L388.894 191.881L401.839 231.458C399.177 239.815 398.925 248.753 401.112 257.246C403.299 265.74 407.837 273.444 414.205 279.476C420.572 285.507 428.512 289.62 437.111 291.344C445.711 293.068 454.622 292.332 462.822 289.22C463.214 293.14 464.687 296.873 467.077 300.005C469.467 303.136 472.679 305.542 476.357 306.954C480.034 308.366 484.031 308.729 487.902 308.002C491.774 307.275 495.367 305.487 498.282 302.838C501.197 300.188 503.318 296.781 504.41 292.996C505.501 289.212 505.52 285.198 504.464 281.403C503.408 277.608 501.318 274.182 498.428 271.505C495.539 268.828 491.962 267.007 488.098 266.244V266.244Z" fill="#262626"/>
<path d="M347.575 290.341C360.446 290.341 370.88 279.907 370.88 267.036C370.88 254.166 360.446 243.732 347.575 243.732C334.704 243.732 324.27 254.166 324.27 267.036C324.27 279.907 334.704 290.341 347.575 290.341Z" fill="#262626"/>
<path d="M422.531 205.482C422.552 201.383 420.959 197.441 418.095 194.508C415.232 191.575 411.328 189.887 407.23 189.81L406.266 179.314C405.983 175.986 405.046 172.746 403.508 169.78C401.971 166.814 399.863 164.181 397.306 162.032C394.749 159.882 391.793 158.258 388.608 157.253C385.422 156.247 382.069 155.881 378.741 156.174L340.078 159.779C335.017 160.281 330.36 162.77 327.131 166.7C323.901 170.629 322.361 175.679 322.849 180.742L327.133 227.966C327.471 231.932 328.588 235.791 330.42 239.324C332.252 242.857 334.764 245.994 337.81 248.555C340.856 251.116 344.378 253.051 348.173 254.248C351.969 255.446 355.963 255.883 359.927 255.534L361.72 255.362L364.14 281.538L415.212 276.782L412.356 245.781H412.314L410.043 220.855C413.579 220.127 416.753 218.198 419.029 215.397C421.305 212.595 422.543 209.092 422.531 205.482V205.482Z" fill="white"/>
<path d="M406.851 212.951C405.653 212.951 404.481 212.595 403.484 211.929C402.487 211.263 401.71 210.317 401.251 209.209C400.792 208.101 400.672 206.882 400.906 205.707C401.14 204.531 401.717 203.451 402.565 202.603C403.413 201.755 404.493 201.178 405.669 200.944C406.845 200.71 408.064 200.83 409.171 201.289C410.279 201.747 411.226 202.524 411.892 203.521C412.558 204.518 412.913 205.69 412.913 206.889C412.911 208.496 412.272 210.037 411.136 211.173C409.999 212.31 408.459 212.949 406.851 212.951ZM406.851 203.669C406.217 203.669 405.598 203.857 405.07 204.209C404.543 204.562 404.132 205.062 403.89 205.648C403.647 206.234 403.583 206.878 403.707 207.5C403.831 208.122 404.136 208.693 404.585 209.142C405.033 209.59 405.604 209.895 406.226 210.019C406.848 210.143 407.492 210.079 408.078 209.837C408.664 209.594 409.165 209.183 409.517 208.656C409.869 208.129 410.057 207.509 410.057 206.875C410.052 206.028 409.712 205.217 409.111 204.619C408.511 204.022 407.699 203.685 406.851 203.683V203.669Z" fill="#262626"/>
<path d="M361.612 255.405L392.022 251.628C392.217 251.604 392.415 251.65 392.58 251.758C392.745 251.866 392.865 252.029 392.921 252.219C392.976 252.408 392.961 252.611 392.88 252.79C392.799 252.97 392.657 253.115 392.479 253.199L362.712 267.422L361.612 255.405Z" fill="#262626"/>
<path d="M402.382 209.524C402.047 209.53 401.72 209.419 401.459 209.208C401.198 208.998 401.019 208.703 400.954 208.374C400.626 206.754 400.729 205.077 401.253 203.509C401.776 201.942 402.703 200.539 403.938 199.442C405.132 198.435 406.55 197.728 408.073 197.382C409.596 197.035 411.18 197.058 412.692 197.45C413.056 197.552 413.365 197.794 413.552 198.123C413.738 198.452 413.785 198.842 413.685 199.206C413.583 199.571 413.341 199.88 413.012 200.066C412.682 200.252 412.293 200.3 411.928 200.199C410.878 199.935 409.78 199.921 408.723 200.159C407.666 200.397 406.68 200.881 405.845 201.57C404.985 202.334 404.341 203.311 403.977 204.402C403.614 205.494 403.544 206.662 403.774 207.789C403.812 207.973 403.812 208.163 403.776 208.347C403.74 208.532 403.668 208.708 403.564 208.864C403.46 209.021 403.326 209.155 403.169 209.26C403.013 209.364 402.838 209.437 402.653 209.474C402.564 209.497 402.473 209.514 402.382 209.524Z" fill="#262626"/>
<path d="M331.96 210.224C333.628 210.224 334.98 208.871 334.98 207.203C334.98 205.535 333.628 204.183 331.96 204.183C330.292 204.183 328.94 205.535 328.94 207.203C328.94 208.871 330.292 210.224 331.96 210.224Z" fill="#262626"/>
<path d="M364.183 206.489C365.851 206.489 367.203 205.137 367.203 203.469C367.203 201.801 365.851 200.449 364.183 200.449C362.515 200.449 361.163 201.801 361.163 203.469C361.163 205.137 362.515 206.489 364.183 206.489Z" fill="#262626"/>
<path d="M345.048 219.248C344.934 219.249 344.822 219.234 344.712 219.206C342.434 218.656 340.078 217.828 339.914 215.921C339.897 215.198 340.166 214.497 340.664 213.972C340.806 213.786 340.971 213.572 341.149 213.294C341.816 212.225 342.154 210.983 342.12 209.724L342.056 196.557C342.056 196.179 342.206 195.816 342.474 195.548C342.742 195.28 343.105 195.129 343.484 195.129C343.863 195.129 344.226 195.28 344.494 195.548C344.762 195.816 344.912 196.179 344.912 196.557L344.976 209.724C344.995 211.513 344.5 213.27 343.548 214.786C343.32 215.136 343.134 215.393 342.97 215.607C343.728 215.975 344.529 216.246 345.355 216.414C345.699 216.492 346.001 216.695 346.205 216.983C346.408 217.271 346.498 217.625 346.456 217.975C346.414 218.325 346.244 218.648 345.979 218.88C345.714 219.113 345.372 219.239 345.019 219.234L345.048 219.248Z" fill="#262626"/>
<path d="M349.96 231.822C348.03 231.795 346.129 231.346 344.391 230.508C344.054 230.335 343.799 230.035 343.683 229.674C343.568 229.313 343.6 228.921 343.773 228.584C343.946 228.247 344.246 227.993 344.607 227.877C344.968 227.761 345.36 227.793 345.697 227.966C345.74 227.966 349.032 229.637 352.002 228.68C352.812 228.386 353.554 227.93 354.183 227.339C354.811 226.749 355.313 226.037 355.658 225.246C355.735 225.068 355.847 224.907 355.989 224.774C356.13 224.64 356.297 224.537 356.48 224.471C356.663 224.405 356.857 224.376 357.051 224.387C357.245 224.399 357.435 224.449 357.608 224.536C357.782 224.624 357.936 224.745 358.061 224.894C358.186 225.043 358.28 225.215 358.336 225.401C358.392 225.587 358.409 225.783 358.387 225.976C358.365 226.169 358.303 226.356 358.207 226.524C357.699 227.659 356.964 228.678 356.047 229.517C355.129 230.356 354.049 230.997 352.873 231.401C351.93 231.694 350.947 231.836 349.96 231.822V231.822Z" fill="#262626"/>
<path d="M413.778 261.808L362.104 266.575L364.298 290.357L415.972 285.591L413.778 261.808Z" fill="#F9B800"/>
<path d="M340.814 161.593C345.355 161.236 349.689 164.97 352.238 168.29C356.522 173.888 358.328 180.714 361.627 186.854C368.174 198.992 384.118 200.513 395.734 195.458L439.503 179.129C438.417 175.637 432.805 155.895 412.735 146.342C403.448 141.998 393.09 140.479 382.947 141.972L346.111 143.9C341.824 144.093 337.652 145.351 333.973 147.563C327.312 151.668 320.029 160.415 322.607 178.886C323.194 174.345 325.328 170.145 328.649 166.992C331.97 163.84 336.276 161.928 340.842 161.579L340.814 161.593Z" fill="#262626"/>
<path d="M325.734 284.03C325.734 284.03 309.169 286.35 298.288 319.601C295.596 327.826 292.74 335.966 289.441 343.991L267.115 394.642L283.372 464.536L319.822 440.831L307.648 409.351C300.808 392.929 298.795 374.422 303.957 357.415L325.734 284.03Z" fill="white"/>
<path d="M468.541 419.133L316.837 436.904C310.033 420.032 308.726 418.483 301.929 401.625C296.368 387.848 295.646 372.591 299.88 358.35L321.107 287.2C321.573 285.62 322.525 284.226 323.827 283.216C325.129 282.207 326.715 281.632 328.361 281.573L462.194 276.483C465.457 335.066 465.314 360.549 468.541 419.133Z" fill="#F9B800"/>
<path d="M304.614 230.687C309.355 233.4 312.132 238.355 314.61 243.025C317.478 248.389 319.99 253.937 322.128 259.632C326.408 270.994 329.157 282.874 330.303 294.961C331.43 306.788 330.862 318.716 328.618 330.382C326.487 341.335 322.852 351.941 317.816 361.898C312.78 371.889 306.299 381.082 298.58 389.18C297.628 390.194 296.638 391.189 295.61 392.165C293.625 394.086 296.653 397.113 298.638 395.192C306.959 387.103 314.029 377.819 319.615 367.646C325.234 357.478 329.406 346.574 332.01 335.252C334.714 323.344 335.697 311.11 334.93 298.924C334.144 286.322 331.654 273.885 327.526 261.953C325.441 255.9 322.958 249.992 320.093 244.267C317.516 239.112 314.76 233.593 310.426 229.673C309.319 228.66 308.105 227.772 306.806 227.024C304.407 225.653 302.25 229.351 304.664 230.722L304.614 230.687Z" fill="white"/>
<path d="M412.185 478.766C411.651 462.548 414.798 446.42 421.388 431.592C427.932 416.688 437.704 403.424 449.998 392.758C456.424 387.238 463.793 381.726 472.261 380.048C476.015 379.286 479.908 379.597 483.492 380.948C484.961 381.552 486.366 382.303 487.683 383.19C489.01 384.099 490.242 385.14 491.36 386.296C496.294 391.294 499.6 398.005 501.956 404.574C505.098 413.371 507.168 422.646 508.839 431.82C512.384 451.293 513.285 471.155 511.517 490.868C511.298 493.339 511.036 495.804 510.731 498.265C510.589 499.415 511.817 500.407 512.873 500.407C513.437 500.395 513.975 500.165 514.374 499.766C514.773 499.367 515.003 498.829 515.015 498.265C517.505 477.788 517.159 457.065 513.987 436.683C512.491 426.8 510.293 417.037 507.411 407.466C505.148 400.026 502.021 392.693 497.222 386.524C492.531 380.477 486.027 376.086 478.266 375.414C468.848 374.608 459.952 379.648 452.69 385.111C439.122 395.385 428.069 408.611 420.367 423.788C412.586 438.933 408.311 455.633 407.858 472.654C407.808 474.689 407.858 476.717 407.901 478.752C407.994 481.501 412.278 481.515 412.185 478.752V478.766Z" fill="white"/>
<path d="M333.716 442.459C331.724 430.864 331.767 419.01 333.845 407.43C335.737 396.884 339.143 386.417 344.755 377.242C347.276 373.056 350.367 369.241 353.937 365.904C355.665 364.316 357.528 362.883 359.506 361.62C361.352 360.425 363.308 359.409 365.347 358.585C369.392 357.003 373.713 356.241 378.056 356.343C382.168 356.393 386.224 357.31 389.958 359.035C393.835 360.837 397.105 363.727 399.369 367.353C402.018 371.673 403.067 376.964 401.511 381.719C400.824 383.796 399.654 385.68 398.098 387.217C396.584 388.702 394.478 390.073 392.25 390.266C391.321 390.332 390.39 390.181 389.531 389.822C388.671 389.464 387.908 388.909 387.302 388.202C385.873 386.652 384.826 384.789 384.246 382.761C381.047 372.23 385.596 360.72 391.015 351.767C396.326 343.141 403.152 335.546 411.164 329.347C419.524 322.874 428.845 317.748 438.789 314.153C449.785 310.191 461.238 307.632 472.875 306.535C475.731 306.249 478.587 306.035 481.443 305.892C482.006 305.878 482.543 305.647 482.942 305.249C483.34 304.85 483.57 304.314 483.585 303.75C483.585 303.182 483.359 302.637 482.958 302.236C482.556 301.834 482.011 301.608 481.443 301.608C468.942 302.15 456.553 304.2 444.543 307.713C433.296 311.018 422.64 316.079 412.97 322.707C403.897 328.957 396.022 336.788 389.723 345.826C383.189 355.351 377.777 367.203 379.155 379.027C379.769 384.318 381.69 389.859 386.295 392.95C391.222 396.235 397.419 393.964 401.254 390.094C403.17 388.103 404.622 385.713 405.507 383.095C406.392 380.477 406.688 377.696 406.373 374.95C405.698 369.318 403.085 364.096 398.983 360.178C392.086 353.545 381.976 351.188 372.658 352.402C362.305 353.752 353.33 359.464 346.64 367.353C339.5 375.8 334.859 386.132 331.881 396.727C328.455 408.932 327.246 421.652 328.311 434.284C328.576 437.418 329.025 440.553 329.525 443.659C329.677 444.206 330.04 444.67 330.534 444.95C331.028 445.23 331.613 445.302 332.16 445.151C332.702 444.991 333.161 444.627 333.441 444.136C333.72 443.645 333.799 443.064 333.659 442.516L333.716 442.459Z" fill="white"/>
<path d="M547.517 412.535H547.595L536.735 387.26L513.887 334.031C510.598 326.377 507.309 318.718 504.02 311.055C499.536 300.623 495.88 289.335 486.427 282.223C474.289 273.105 455.939 271.228 443.43 280.645C432.784 288.656 429.864 303.208 430.056 315.874C430.313 330.233 435.054 344.198 441.295 356.979C447.721 370.145 453.004 383.854 458.909 397.27L468.548 419.161L323.97 436.069C319.174 436.625 314.492 437.919 310.09 439.903C304.021 442.65 297.847 445.601 291.569 448.757C287.89 450.603 284.296 452.465 280.788 454.34L289.863 490.754H496.094C536.642 490.754 563.432 449.171 547.517 412.535Z" fill="white"/>
<path d="M608.713 381.376H560.161C557.867 381.375 555.667 380.462 554.045 378.84C552.422 377.217 551.51 375.017 551.508 372.723V324.128C551.51 321.833 552.422 319.633 554.045 318.011C555.667 316.388 557.867 315.476 560.161 315.474H608.713C611.008 315.476 613.208 316.388 614.831 318.011C616.453 319.633 617.365 321.833 617.367 324.128V372.723C617.365 375.017 616.453 377.217 614.831 378.84C613.208 380.462 611.008 381.375 608.713 381.376V381.376ZM560.161 318.33C558.624 318.332 557.151 318.944 556.064 320.03C554.977 321.117 554.366 322.591 554.364 324.128V372.723C554.366 374.26 554.977 375.733 556.064 376.82C557.151 377.907 558.624 378.519 560.161 378.52H608.713C610.251 378.519 611.724 377.907 612.811 376.82C613.898 375.733 614.509 374.26 614.511 372.723V324.128C614.509 322.591 613.898 321.117 612.811 320.03C611.724 318.944 610.251 318.332 608.713 318.33H560.161Z" fill="#262626"/>
<path d="M573.592 343.106C572.118 343.106 570.676 342.669 569.451 341.85C568.225 341.031 567.269 339.867 566.705 338.504C566.141 337.142 565.993 335.644 566.281 334.198C566.569 332.752 567.279 331.423 568.321 330.381C569.363 329.338 570.692 328.629 572.138 328.341C573.584 328.053 575.082 328.201 576.444 328.765C577.807 329.329 578.971 330.285 579.79 331.511C580.609 332.736 581.046 334.178 581.046 335.652C581.044 337.628 580.258 339.523 578.861 340.921C577.463 342.318 575.568 343.104 573.592 343.106V343.106ZM573.592 331.054C572.682 331.054 571.793 331.323 571.037 331.829C570.281 332.334 569.692 333.052 569.344 333.892C568.996 334.732 568.905 335.657 569.082 336.549C569.259 337.441 569.697 338.26 570.34 338.903C570.984 339.546 571.803 339.984 572.695 340.162C573.587 340.339 574.511 340.248 575.351 339.9C576.192 339.552 576.91 338.963 577.415 338.206C577.92 337.45 578.19 336.561 578.19 335.652C578.182 334.437 577.695 333.274 576.834 332.416C575.972 331.559 574.807 331.077 573.592 331.075V331.054Z" fill="#262626"/>
<path d="M595.248 366.232C593.772 366.232 592.329 365.794 591.103 364.974C589.876 364.153 588.921 362.987 588.357 361.623C587.794 360.258 587.649 358.758 587.939 357.311C588.23 355.864 588.943 354.536 589.989 353.495C591.035 352.454 592.367 351.747 593.815 351.463C595.264 351.179 596.763 351.332 598.125 351.902C599.486 352.471 600.648 353.432 601.463 354.663C602.278 355.893 602.709 357.338 602.702 358.814C602.69 360.784 601.9 362.67 600.504 364.06C599.107 365.45 597.218 366.231 595.248 366.232V366.232ZM595.248 354.18C594.338 354.18 593.449 354.45 592.693 354.955C591.937 355.46 591.347 356.178 590.999 357.019C590.651 357.859 590.56 358.783 590.738 359.675C590.915 360.567 591.353 361.387 591.996 362.03C592.639 362.673 593.459 363.111 594.35 363.288C595.242 363.465 596.167 363.374 597.007 363.026C597.847 362.678 598.566 362.089 599.071 361.333C599.576 360.577 599.846 359.688 599.846 358.778C599.844 357.559 599.359 356.391 598.497 355.529C597.635 354.667 596.466 354.182 595.248 354.18Z" fill="#262626"/>
<path d="M570.179 370.659C569.927 370.657 569.68 370.585 569.465 370.452C569.142 370.257 568.909 369.941 568.818 369.574C568.727 369.208 568.785 368.82 568.979 368.496L594.048 326.877C594.145 326.716 594.273 326.576 594.424 326.464C594.575 326.353 594.747 326.272 594.929 326.227C595.111 326.182 595.301 326.174 595.487 326.202C595.672 326.23 595.851 326.294 596.011 326.391C596.172 326.488 596.312 326.616 596.424 326.767C596.535 326.918 596.616 327.09 596.661 327.272C596.706 327.455 596.715 327.644 596.687 327.83C596.658 328.016 596.594 328.194 596.497 328.355L571.428 369.967C571.299 370.182 571.116 370.359 570.897 370.48C570.677 370.602 570.43 370.664 570.179 370.659Z" fill="#262626"/>
<path d="M686.154 279.146H531.866C528.457 279.146 525.188 277.792 522.778 275.382C520.368 272.971 519.014 269.702 519.014 266.294V145.771C519.014 142.362 520.368 139.093 522.778 136.683C525.188 134.273 528.457 132.919 531.866 132.919H686.154C689.563 132.919 692.831 134.273 695.242 136.683C697.652 139.093 699.006 142.362 699.006 145.771V266.308C699.002 269.714 697.646 272.98 695.237 275.387C692.827 277.794 689.56 279.146 686.154 279.146V279.146ZM531.866 135.789C529.215 135.789 526.672 136.842 524.797 138.717C522.923 140.591 521.87 143.134 521.87 145.785V266.308C521.87 268.959 522.923 271.502 524.797 273.376C526.672 275.251 529.215 276.304 531.866 276.304H686.154C688.805 276.304 691.348 275.251 693.222 273.376C695.097 271.502 696.15 268.959 696.15 266.308V145.771C696.15 143.12 695.097 140.577 693.222 138.702C691.348 136.828 688.805 135.775 686.154 135.775L531.866 135.789Z" fill="#262626"/>
<path d="M601.759 161.157H546.638C543.074 161.157 540.184 164.047 540.184 167.612V251.7C540.184 255.264 543.074 258.154 546.638 258.154H601.759C605.324 258.154 608.214 255.264 608.214 251.7V167.612C608.214 164.047 605.324 161.157 601.759 161.157Z" fill="#F9B800"/>
<path d="M646.948 164.156H632.59C630.61 164.156 629.005 165.761 629.005 167.74V182.099C629.005 184.079 630.61 185.683 632.59 185.683H646.948C648.928 185.683 650.532 184.079 650.532 182.099V167.74C650.532 165.761 648.928 164.156 646.948 164.156Z" fill="#FFF1C9"/>
<path d="M678.457 164.156H664.099C662.119 164.156 660.514 165.761 660.514 167.74V182.099C660.514 184.079 662.119 185.683 664.099 185.683H678.457C680.437 185.683 682.041 184.079 682.041 182.099V167.74C682.041 165.761 680.437 164.156 678.457 164.156Z" fill="#FFF1C9"/>
<path d="M682.034 203.419H630.376C629.998 203.419 629.634 203.269 629.366 203.001C629.099 202.733 628.948 202.37 628.948 201.991C628.948 201.612 629.099 201.249 629.366 200.981C629.634 200.713 629.998 200.563 630.376 200.563H682.034C682.413 200.563 682.776 200.713 683.044 200.981C683.312 201.249 683.462 201.612 683.462 201.991C683.462 202.37 683.312 202.733 683.044 203.001C682.776 203.269 682.413 203.419 682.034 203.419Z" fill="#262626"/>
<path d="M682.034 217.949H630.376C629.998 217.949 629.634 217.798 629.366 217.531C629.099 217.263 628.948 216.9 628.948 216.521C628.948 216.142 629.099 215.779 629.366 215.511C629.634 215.243 629.998 215.093 630.376 215.093H682.034C682.413 215.093 682.776 215.243 683.044 215.511C683.312 215.779 683.462 216.142 683.462 216.521C683.462 216.9 683.312 217.263 683.044 217.531C682.776 217.798 682.413 217.949 682.034 217.949Z" fill="#262626"/>
<path d="M666.583 233.471H630.376C629.998 233.471 629.634 233.321 629.366 233.053C629.099 232.785 628.948 232.422 628.948 232.043C628.948 231.665 629.099 231.301 629.366 231.034C629.634 230.766 629.998 230.615 630.376 230.615H666.583C666.962 230.615 667.325 230.766 667.593 231.034C667.861 231.301 668.011 231.665 668.011 232.043C668.011 232.422 667.861 232.785 667.593 233.053C667.325 233.321 666.962 233.471 666.583 233.471Z" fill="#262626"/>
<path d="M582.46 189.353V192.923C582.459 194.713 581.765 196.432 580.522 197.72C579.28 199.007 577.586 199.763 575.798 199.828C575.377 199.828 574.97 199.828 574.563 199.828C572.726 199.77 570.984 198.999 569.707 197.678C568.43 196.356 567.718 194.589 567.723 192.752V189.36C567.723 188.277 567.293 187.238 566.527 186.472C565.761 185.707 564.722 185.276 563.639 185.276V185.276C562.556 185.276 561.517 185.707 560.751 186.472C559.985 187.238 559.555 188.277 559.555 189.36V226.438C559.555 227.123 559.689 227.801 559.951 228.433C560.213 229.065 560.597 229.64 561.081 230.124C561.565 230.608 562.14 230.992 562.772 231.254C563.405 231.516 564.082 231.651 564.767 231.651H585.416C586.1 231.651 586.778 231.516 587.41 231.254C588.043 230.992 588.617 230.608 589.101 230.124C589.585 229.64 589.969 229.065 590.231 228.433C590.493 227.801 590.628 227.123 590.628 226.438V189.353C590.628 188.27 590.198 187.231 589.432 186.465C588.666 185.699 587.627 185.269 586.544 185.269V185.269C585.461 185.269 584.422 185.699 583.656 186.465C582.89 187.231 582.46 188.27 582.46 189.353Z" fill="white"/>
<path d="M496.944 405.602C496.944 402.154 484.72 399.355 469.633 399.355C454.547 399.355 442.323 402.154 442.323 405.602L439.388 436.419C446.229 435.305 455.81 435.233 464.264 440.488C467.278 442.418 470.605 443.808 474.096 444.594C479.972 445.829 488.819 446.122 499.464 441.609L496.944 405.602Z" fill="white"/>
<path d="M481.8 446.807C479.111 446.81 476.429 446.537 473.796 445.993C470.148 445.169 466.669 443.719 463.514 441.709C455.303 436.626 445.986 436.797 439.617 437.832L437.789 438.132L440.902 405.531C441.059 399.526 459.737 397.934 469.633 397.934C479.529 397.934 498.251 399.512 498.372 405.545L500.957 442.53L500.014 442.923C494.268 445.435 488.071 446.757 481.8 446.807ZM446.671 434.384C453.124 434.269 459.481 435.963 465.021 439.275C467.89 441.115 471.058 442.441 474.382 443.194C479.608 444.294 487.883 444.722 497.944 440.681L495.516 405.602C495.516 404.446 487.733 400.783 469.633 400.783C451.534 400.783 443.751 404.446 443.751 405.602V405.738L440.981 434.748C442.868 434.508 444.769 434.386 446.671 434.384V434.384Z" fill="#262626"/>
<path d="M501.349 439.082C490.018 443.594 480.593 443.302 474.339 442.066C470.652 441.282 467.121 439.895 463.886 437.961C454.839 432.699 444.679 432.777 437.396 433.884L434.419 463.208C434.038 466.943 434.446 470.716 435.614 474.284C436.783 477.851 438.687 481.134 441.204 483.92C443.721 486.706 446.794 488.933 450.225 490.457C453.656 491.981 457.368 492.768 461.123 492.768H476.424C480.117 492.768 483.77 492.006 487.155 490.53C490.54 489.054 493.585 486.896 496.098 484.19C498.611 481.484 500.538 478.289 501.76 474.804C502.982 471.319 503.472 467.619 503.199 463.936L501.349 439.082Z" fill="#F9B800"/>
<path d="M467.463 474.239H467.334C466.958 474.205 466.61 474.022 466.368 473.732C466.125 473.441 466.008 473.067 466.042 472.69L474.931 374.301C475.059 372.806 475.744 371.414 476.852 370.402C477.959 369.389 479.407 368.831 480.908 368.839H502.056C502.435 368.839 502.798 368.989 503.066 369.257C503.334 369.525 503.484 369.888 503.484 370.267C503.484 370.645 503.334 371.008 503.066 371.276C502.798 371.544 502.435 371.695 502.056 371.695H480.908C480.123 371.693 479.366 371.985 478.786 372.514C478.206 373.042 477.844 373.769 477.773 374.551L468.884 472.94C468.852 473.295 468.688 473.625 468.425 473.865C468.162 474.105 467.819 474.239 467.463 474.239Z" fill="#262626"/>
<path d="M469.576 413.078C468.755 413.078 467.934 413.078 467.12 413.035C458.33 412.703 449.696 410.618 441.723 406.902C441.553 406.823 441.4 406.711 441.273 406.572C441.146 406.434 441.048 406.272 440.984 406.096C440.919 405.919 440.89 405.732 440.898 405.545C440.906 405.357 440.951 405.173 441.031 405.003C441.11 404.833 441.222 404.68 441.36 404.553C441.499 404.426 441.66 404.327 441.837 404.263C442.013 404.199 442.201 404.17 442.388 404.178C442.576 404.186 442.76 404.231 442.93 404.31C450.55 407.865 458.804 409.861 467.206 410.179C477.238 410.54 487.214 408.529 496.323 404.31C496.493 404.23 496.678 404.184 496.866 404.176C497.054 404.167 497.242 404.196 497.419 404.26C497.596 404.324 497.758 404.423 497.897 404.55C498.036 404.678 498.148 404.831 498.227 405.002C498.306 405.173 498.351 405.358 498.358 405.546C498.365 405.734 498.336 405.922 498.27 406.099C498.205 406.275 498.105 406.437 497.976 406.575C497.848 406.713 497.694 406.824 497.522 406.902C488.762 410.953 479.228 413.06 469.576 413.078V413.078Z" fill="#262626"/>
<path d="M379.312 282.095C378.948 282.095 378.597 281.957 378.332 281.707C378.066 281.458 377.906 281.116 377.884 280.752L377.042 266.23C377.02 265.851 377.15 265.479 377.402 265.196C377.654 264.913 378.009 264.741 378.388 264.72C378.767 264.698 379.138 264.827 379.422 265.08C379.705 265.332 379.876 265.687 379.898 266.065L380.74 280.581C380.752 280.769 380.726 280.957 380.665 281.134C380.604 281.312 380.508 281.476 380.384 281.617C380.259 281.757 380.108 281.872 379.938 281.954C379.769 282.036 379.586 282.084 379.398 282.095H379.312Z" fill="#262626"/>
<path d="M393.792 281.038C393.428 281.039 393.077 280.9 392.812 280.651C392.546 280.401 392.386 280.059 392.364 279.696L391.522 265.173C391.511 264.985 391.537 264.798 391.599 264.62C391.661 264.443 391.757 264.279 391.882 264.139C392.007 263.999 392.158 263.885 392.328 263.803C392.497 263.721 392.68 263.674 392.868 263.663C393.055 263.652 393.243 263.678 393.42 263.74C393.598 263.802 393.761 263.898 393.902 264.023C394.042 264.148 394.156 264.299 394.238 264.469C394.32 264.638 394.367 264.821 394.378 265.009L395.22 279.56C395.232 279.748 395.206 279.936 395.145 280.113C395.084 280.291 394.988 280.455 394.864 280.596C394.739 280.736 394.588 280.851 394.419 280.933C394.249 281.015 394.066 281.063 393.878 281.074L393.792 281.038Z" fill="#262626"/>
<path d="M245.894 283.908H94.4123C91.7611 283.908 89.2186 282.855 87.344 280.981C85.4694 279.106 84.4163 276.563 84.4163 273.912V177.222C84.4163 174.571 85.4694 172.029 87.344 170.154C89.2186 168.28 91.7611 167.226 94.4123 167.226H245.894C248.546 167.226 251.088 168.28 252.963 170.154C254.837 172.029 255.89 174.571 255.89 177.222V273.891C255.893 275.205 255.637 276.507 255.136 277.723C254.635 278.938 253.899 280.042 252.97 280.973C252.042 281.903 250.939 282.642 249.725 283.145C248.511 283.649 247.209 283.908 245.894 283.908V283.908ZM94.4123 170.061C92.5186 170.061 90.7025 170.813 89.3635 172.152C88.0245 173.491 87.2723 175.307 87.2723 177.201V273.891C87.2723 275.784 88.0245 277.601 89.3635 278.94C90.7025 280.279 92.5186 281.031 94.4123 281.031H245.894C247.788 281.031 249.604 280.279 250.943 278.94C252.282 277.601 253.034 275.784 253.034 273.891V177.222C253.034 175.329 252.282 173.513 250.943 172.174C249.604 170.835 247.788 170.082 245.894 170.082L94.4123 170.061Z" fill="#262626"/>
<path d="M232.286 240.354H168.126C165.054 240.354 162.563 242.844 162.563 245.916V247.937C162.563 251.009 165.054 253.499 168.126 253.499H232.286C235.357 253.499 237.848 251.009 237.848 247.937V245.916C237.848 242.844 235.357 240.354 232.286 240.354Z" fill="#FFBB45"/>
<path d="M234.706 207.089H165.705C165.326 207.089 164.963 206.939 164.695 206.671C164.428 206.403 164.277 206.04 164.277 205.661C164.277 205.282 164.428 204.919 164.695 204.651C164.963 204.383 165.326 204.233 165.705 204.233H234.706C235.085 204.233 235.448 204.383 235.716 204.651C235.984 204.919 236.134 205.282 236.134 205.661C236.134 206.04 235.984 206.403 235.716 206.671C235.448 206.939 235.085 207.089 234.706 207.089Z" fill="#262626"/>
<path d="M224.989 222.704H165.727C165.348 222.704 164.985 222.554 164.717 222.286C164.449 222.018 164.299 221.655 164.299 221.276C164.299 220.897 164.449 220.534 164.717 220.266C164.985 219.999 165.348 219.848 165.727 219.848H224.989C225.367 219.848 225.731 219.999 225.998 220.266C226.266 220.534 226.417 220.897 226.417 221.276C226.417 221.655 226.266 222.018 225.998 222.286C225.731 222.554 225.367 222.704 224.989 222.704Z" fill="#262626"/>
<path d="M116.625 208.631C116.246 208.631 115.883 208.481 115.615 208.213C115.347 207.945 115.197 207.582 115.197 207.203C115.075 202.205 116.939 199.185 118.524 197.543C120.291 195.69 122.712 194.601 125.271 194.508C127.77 194.551 130.151 195.577 131.897 197.364C133.518 198.992 135.467 202.02 135.382 207.189C135.382 207.568 135.231 207.931 134.963 208.199C134.696 208.467 134.332 208.617 133.954 208.617C133.575 208.617 133.212 208.467 132.944 208.199C132.676 207.931 132.526 207.568 132.526 207.189C132.576 203.012 131.098 200.656 129.877 199.414C128.661 198.184 127.021 197.464 125.293 197.4C123.5 197.471 121.807 198.24 120.573 199.542C118.845 201.327 117.974 203.955 118.053 207.146C118.053 207.525 117.902 207.888 117.635 208.156C117.367 208.424 117.004 208.574 116.625 208.574V208.631Z" fill="#262626"/>
<path d="M142.736 255.284H108.007C107.156 255.284 106.314 255.103 105.539 254.751C104.764 254.4 104.073 253.887 103.513 253.247C102.952 252.606 102.535 251.853 102.289 251.039C102.043 250.224 101.975 249.366 102.088 248.522L106.929 212.408C107.122 210.976 107.829 209.663 108.917 208.712C110.006 207.761 111.403 207.238 112.848 207.239H137.088C138.511 207.237 139.887 207.744 140.969 208.669C142.051 209.593 142.766 210.874 142.986 212.28L148.648 248.394C148.782 249.247 148.73 250.119 148.494 250.949C148.259 251.78 147.845 252.549 147.283 253.204C146.721 253.86 146.023 254.385 145.238 254.744C144.453 255.103 143.599 255.287 142.736 255.284Z" fill="#FFF1C9"/>
<path d="M396.206 492.439H280.788V467.485H396.206C397.8 467.485 399.329 468.118 400.457 469.246C401.584 470.373 402.218 471.902 402.218 473.497V486.42C402.219 487.21 402.064 487.993 401.762 488.723C401.46 489.453 401.018 490.117 400.459 490.676C399.901 491.235 399.238 491.678 398.508 491.981C397.778 492.283 396.996 492.439 396.206 492.439V492.439Z" fill="#262626"/>
<path d="M293.818 492.439H158.544C156.022 492.463 153.561 491.672 151.525 490.183C149.49 488.694 147.99 486.588 147.248 484.178L114.126 371.88C111.984 364.604 117.617 357.357 125.421 357.357H252.999C255.631 357.327 258.196 358.188 260.277 359.801C262.358 361.413 263.832 363.683 264.458 366.24L293.818 492.439Z" fill="#262626"/>
<path d="M195.572 454.29C205.923 454.29 214.314 445.899 214.314 435.548C214.314 425.196 205.923 416.805 195.572 416.805C185.221 416.805 176.829 425.196 176.829 435.548C176.829 445.899 185.221 454.29 195.572 454.29Z" fill="#FFF1C9"/>
<path d="M191.452 422.224C191.132 422.224 190.822 422.116 190.571 421.918C190.319 421.72 190.142 421.443 190.067 421.132L187.825 411.95C187.78 411.768 187.772 411.578 187.801 411.393C187.829 411.207 187.894 411.029 187.992 410.869C188.189 410.545 188.506 410.312 188.874 410.222C189.243 410.132 189.632 410.192 189.956 410.389C190.28 410.586 190.512 410.903 190.602 411.272L192.844 420.454C192.889 420.636 192.897 420.825 192.869 421.011C192.84 421.197 192.775 421.375 192.678 421.535C192.58 421.696 192.452 421.835 192.301 421.946C192.149 422.057 191.977 422.137 191.795 422.182C191.683 422.21 191.568 422.224 191.452 422.224V422.224Z" fill="#F9B800"/>
<path d="M656.209 492.182H90.1925C89.8138 492.182 89.4506 492.032 89.1828 491.764C88.915 491.496 88.7645 491.133 88.7645 490.754C88.7645 490.375 88.915 490.012 89.1828 489.744C89.4506 489.477 89.8138 489.326 90.1925 489.326H656.209C656.588 489.326 656.951 489.477 657.219 489.744C657.486 490.012 657.637 490.375 657.637 490.754C657.637 491.133 657.486 491.496 657.219 491.764C656.951 492.032 656.588 492.182 656.209 492.182Z" fill="#262626"/>
<path d="M368.924 108.643C364.114 108.65 359.41 107.23 355.407 104.563C351.405 101.896 348.283 98.1012 346.437 93.6594C344.592 89.2177 344.105 84.3283 345.039 79.61C345.973 74.8916 348.286 70.5563 351.685 67.1527C355.083 63.7491 359.415 61.4301 364.132 60.4891C368.849 59.5481 373.739 60.0275 378.184 61.8665C382.628 63.7056 386.427 66.8216 389.1 70.8204C391.773 74.8192 393.2 79.5211 393.2 84.331C393.19 90.7698 390.631 96.9427 386.081 101.499C381.532 106.055 375.363 108.624 368.924 108.643ZM368.924 62.8753C364.687 62.8753 360.546 64.1316 357.024 66.4852C353.501 68.8389 350.756 72.1842 349.134 76.0982C347.513 80.0122 347.089 84.3191 347.915 88.4741C348.742 92.6292 350.782 96.4459 353.778 99.4415C356.773 102.437 360.59 104.477 364.745 105.304C368.9 106.13 373.207 105.706 377.121 104.085C381.035 102.464 384.38 99.7181 386.734 96.1956C389.088 92.6731 390.344 88.5318 390.344 84.2953C390.329 78.619 388.067 73.1795 384.053 69.1657C380.04 65.152 374.6 62.8904 368.924 62.8753V62.8753Z" fill="white"/>
<path d="M369.931 -0.292297H367.924C364.864 -0.292297 362.384 2.18833 362.384 5.24834V51.0443C362.384 54.1043 364.864 56.5849 367.924 56.5849H369.931C372.991 56.5849 375.471 54.1043 375.471 51.0443V5.24834C375.471 2.18833 372.991 -0.292297 369.931 -0.292297Z" fill="#262626"/>
<path d="M367.881 40.7199C352.766 40.9481 337.992 45.2463 325.113 53.1621C312.234 61.078 301.726 72.3188 294.696 85.7019C294.455 86.1581 294.336 86.6691 294.35 87.1851C294.365 87.7011 294.512 88.2046 294.779 88.6466C295.046 89.0886 295.422 89.4541 295.872 89.7076C296.321 89.961 296.829 90.0938 297.345 90.093H440.538C441.054 90.0926 441.56 89.9589 442.009 89.7049C442.458 89.451 442.833 89.0854 443.099 88.6436C443.365 88.2017 443.512 87.6987 443.526 87.1833C443.54 86.6679 443.421 86.1576 443.18 85.7019C435.981 72.0032 425.143 60.5559 411.858 52.6196C398.573 44.6834 383.356 40.5657 367.881 40.7199V40.7199Z" fill="#FFF1C9"/>
<path d="M324.941 76.3913C315.545 76.3913 307.884 70.0438 307.77 69.9653C307.48 69.721 307.299 69.3716 307.267 68.994C307.235 68.6164 307.354 68.2415 307.598 67.9518C307.843 67.6621 308.192 67.4813 308.57 67.4491C308.947 67.417 309.322 67.5362 309.612 67.7805V67.7805C310.24 68.3088 325.091 80.5468 337.772 67.8661L338.636 67.0022L339.628 67.7162C340.342 68.2303 357.064 80.1969 369.409 67.859L370.245 67.0165L371.23 67.6876C374.041 69.4908 377.117 70.8401 380.348 71.686C387.024 73.3711 392.55 72.0859 396.77 67.859L397.655 66.9736L398.648 67.7305C399.312 68.2374 415.12 80.0541 427.322 67.859C427.593 67.6124 427.949 67.4795 428.315 67.4879C428.682 67.4962 429.031 67.6452 429.291 67.9039C429.55 68.1627 429.7 68.5114 429.71 68.8778C429.72 69.2443 429.588 69.6004 429.342 69.8725C417.247 81.9676 401.946 73.3354 397.926 70.6936C393.086 74.9776 386.767 76.2771 379.562 74.4349C376.415 73.6014 373.399 72.3325 370.602 70.665C358.464 81.7106 343.006 73.2426 338.95 70.665C334.302 74.9419 329.425 76.3913 324.941 76.3913Z" fill="#D3B970"/>
<path d="M284.458 454.933C284.15 454.925 283.854 454.818 283.612 454.627C283.371 454.437 283.197 454.174 283.116 453.878C283.036 453.581 283.054 453.266 283.167 452.98C283.28 452.694 283.482 452.453 283.744 452.291C288.385 449.435 293.197 446.779 298.024 444.315C304.45 441.067 311.068 438.096 317.766 435.49C318.119 435.353 318.512 435.362 318.859 435.514C319.206 435.667 319.478 435.951 319.615 436.304C319.752 436.658 319.744 437.051 319.591 437.398C319.438 437.744 319.154 438.016 318.801 438.154C312.189 440.724 305.635 443.651 299.316 446.864C294.539 449.292 289.798 451.941 285.207 454.718C284.983 454.86 284.723 454.934 284.458 454.933Z" fill="#262626"/>
<path d="M100.167 413.835L108.442 382.505H61.4968L68.9509 414.178C60.4846 417.872 53.5559 424.379 49.3388 432.598C45.1218 440.816 43.876 450.239 45.8124 459.271C47.7488 468.303 52.7483 476.388 59.9638 482.155C67.1792 487.922 76.1668 491.018 85.4034 490.916C94.6399 490.815 103.557 487.523 110.644 481.599C117.732 475.674 122.552 467.482 124.29 458.41C126.028 449.338 124.575 439.944 120.179 431.82C115.782 423.696 108.712 417.342 100.167 413.835V413.835Z" fill="white"/>
<path d="M84.966 492.332C75.5471 492.324 66.4115 489.11 59.0625 483.219C51.7134 477.328 46.5888 469.11 44.5319 459.919C42.4751 450.727 43.6085 441.109 47.7457 432.648C51.8828 424.186 58.7773 417.385 67.2945 413.364L59.6904 381.077H110.292L101.866 413.007C110.532 416.882 117.606 423.613 121.907 432.075C126.207 440.538 127.474 450.22 125.496 459.504C123.518 468.788 118.415 477.113 111.038 483.088C103.662 489.062 94.4587 492.325 84.966 492.332V492.332ZM63.2961 383.933L70.6146 415.013L69.5222 415.484C61.3555 419.046 54.6714 425.322 50.6029 433.248C46.5343 441.175 45.3315 450.264 47.1983 458.976C49.0651 467.688 53.8866 475.486 60.8457 481.05C67.8049 486.613 76.4736 489.599 85.3827 489.502C94.2918 489.405 102.893 486.23 109.729 480.516C116.565 474.802 121.216 466.901 122.892 458.15C124.568 449.4 123.167 440.339 118.927 432.503C114.686 424.667 107.867 418.538 99.6244 415.156L98.4677 414.677L106.586 383.933H63.2961Z" fill="#262626"/>
<path d="M84.9517 386.396C98.982 386.396 110.356 383.986 110.356 381.012C110.356 378.039 98.982 375.629 84.9517 375.629C70.9214 375.629 59.5476 378.039 59.5476 381.012C59.5476 383.986 70.9214 386.396 84.9517 386.396Z" fill="#262626"/>
<path d="M78.0402 385.346C77.7488 385.345 77.4647 385.255 77.2261 385.088C76.9874 384.921 76.8056 384.684 76.7051 384.411C68.0371 360.778 50.1228 341.571 49.9443 341.407C49.8154 341.27 49.7146 341.11 49.6477 340.934C49.5808 340.759 49.5491 340.572 49.5544 340.385C49.5597 340.197 49.6019 340.012 49.6786 339.841C49.7553 339.67 49.865 339.515 50.0014 339.386C50.1379 339.257 50.2984 339.156 50.4737 339.089C50.6491 339.023 50.836 338.991 51.0236 338.996C51.2112 339.001 51.396 339.044 51.5673 339.12C51.7386 339.197 51.8931 339.307 52.0221 339.443C52.2077 339.643 70.5147 359.235 79.3826 383.426C79.5053 383.777 79.486 384.163 79.3286 384.5C79.1712 384.838 78.8883 385.1 78.54 385.232C78.3813 385.299 78.2122 385.337 78.0402 385.346V385.346Z" fill="#262626"/>
<path d="M89.4785 385.539C89.0998 385.539 88.7366 385.389 88.4688 385.121C88.201 384.853 88.0505 384.49 88.0505 384.111V363.662C88.0505 363.283 88.201 362.92 88.4688 362.652C88.7366 362.384 89.0998 362.234 89.4785 362.234C89.8573 362.234 90.2205 362.384 90.4883 362.652C90.7561 362.92 90.9065 363.283 90.9065 363.662V384.111C90.9065 384.49 90.7561 384.853 90.4883 385.121C90.2205 385.389 89.8573 385.539 89.4785 385.539Z" fill="#262626"/>
<path d="M58.2124 327.112H52.122C52.0078 326.798 51.8792 326.491 51.7436 326.191L56.1775 322.264C56.647 321.86 57.0315 321.367 57.3087 320.813C57.5858 320.259 57.7502 319.655 57.7922 319.037C57.8341 318.419 57.7529 317.799 57.5532 317.212C57.3534 316.626 57.0392 316.085 56.6287 315.621C56.2182 315.157 55.7196 314.779 55.1619 314.51C54.6042 314.24 53.9984 314.084 53.3799 314.05C52.7613 314.017 52.1422 314.106 51.5586 314.314C50.9749 314.522 50.4383 314.843 49.98 315.26L45.3104 319.394C45.239 319.458 45.1819 319.537 45.1105 319.608C44.8178 319.473 44.5179 319.351 44.2109 319.237V313.575C44.1636 312.365 43.6499 311.221 42.7773 310.382C41.9047 309.543 40.7412 309.074 39.5306 309.074C38.32 309.074 37.1565 309.543 36.2839 310.382C35.4114 311.221 34.8976 312.365 34.8503 313.575V319.237C34.4176 319.396 33.9934 319.577 33.5794 319.78C33.448 319.617 33.3048 319.464 33.151 319.323L28.4458 315.26C27.4987 314.505 26.2962 314.147 25.0905 314.259C23.8848 314.372 22.7696 314.948 21.979 315.865C21.1883 316.782 20.7836 317.97 20.8498 319.179C20.916 320.388 21.4479 321.525 22.3339 322.35L27.0606 326.427C27.098 326.46 27.1386 326.488 27.182 326.513C27.0963 326.713 27.0249 326.92 26.9464 327.127H21.0773C19.8431 327.132 18.6612 327.626 17.7892 328.499C16.9172 329.372 16.4258 330.555 16.422 331.789V331.789C16.422 333.03 16.9145 334.22 17.7913 335.099C18.6682 335.977 19.8577 336.471 21.0987 336.473H26.9107L27.0535 336.859H27.0106L22.3339 340.993C21.4506 341.828 20.9264 342.973 20.8723 344.188C20.8182 345.402 21.2383 346.59 22.0439 347.5C22.8495 348.411 23.9774 348.972 25.1893 349.066C26.4013 349.16 27.6023 348.779 28.5386 348.004L33.2081 343.87L33.3081 343.763C33.8187 344.038 34.3484 344.277 34.8932 344.477V350.089C34.9404 351.299 35.4542 352.443 36.3268 353.282C37.1993 354.121 38.3629 354.59 39.5734 354.59C40.784 354.59 41.9476 354.121 42.8201 353.282C43.6927 352.443 44.2065 351.299 44.2537 350.089V344.534C44.575 344.413 44.8963 344.284 45.2105 344.134L49.7944 348.083C50.7383 348.89 51.9645 349.29 53.2031 349.193C54.4417 349.097 55.5912 348.513 56.3989 347.569C57.2065 346.625 57.6061 345.398 57.5097 344.16C57.4132 342.921 56.8288 341.772 55.8848 340.964L51.815 337.451C51.9578 337.13 52.0863 336.801 52.2077 336.473H58.2124C59.4547 336.473 60.646 335.98 61.5244 335.101C62.4028 334.223 62.8963 333.031 62.8963 331.789V331.789C62.8944 330.548 62.4001 329.359 61.5219 328.482C60.6437 327.605 59.4534 327.112 58.2124 327.112V327.112Z" fill="#FFE18B"/>
<path d="M58.2124 327.112H52.122C52.0078 326.798 51.8792 326.491 51.7436 326.191L56.1775 322.264C56.647 321.86 57.0315 321.367 57.3087 320.813C57.5858 320.259 57.7502 319.655 57.7922 319.037C57.8341 318.419 57.7529 317.799 57.5532 317.212C57.3534 316.626 57.0392 316.085 56.6287 315.621C56.2182 315.157 55.7196 314.779 55.1619 314.51C54.6042 314.24 53.9984 314.084 53.3799 314.05C52.7613 314.017 52.1422 314.106 51.5586 314.314C50.9749 314.522 50.4383 314.843 49.98 315.26L45.3104 319.394C45.239 319.458 45.1819 319.537 45.1105 319.608C44.8178 319.473 44.5179 319.351 44.2109 319.237V313.575C44.1636 312.365 43.6499 311.221 42.7773 310.382C41.9047 309.543 40.7412 309.074 39.5306 309.074C38.32 309.074 37.1565 309.543 36.2839 310.382C35.4114 311.221 34.8976 312.365 34.8503 313.575V319.237C34.4176 319.396 33.9934 319.577 33.5794 319.78C33.448 319.617 33.3048 319.464 33.151 319.323L28.4458 315.26C27.4987 314.505 26.2962 314.147 25.0905 314.259C23.8848 314.372 22.7696 314.948 21.979 315.865C21.1883 316.782 20.7836 317.97 20.8498 319.179C20.916 320.388 21.4479 321.525 22.3339 322.35L27.0606 326.427C27.098 326.46 27.1386 326.488 27.182 326.513C27.0963 326.713 27.0249 326.92 26.9464 327.127H21.0773C19.8431 327.132 18.6612 327.626 17.7892 328.499C16.9172 329.372 16.4258 330.555 16.422 331.789V331.789C16.422 333.03 16.9145 334.22 17.7913 335.099C18.6682 335.977 19.8577 336.471 21.0987 336.473H26.9107L27.0535 336.859H27.0106L22.3339 340.993C21.4506 341.828 20.9264 342.973 20.8723 344.188C20.8182 345.402 21.2383 346.59 22.0439 347.5C22.8495 348.411 23.9774 348.972 25.1893 349.066C26.4013 349.16 27.6023 348.779 28.5386 348.004L33.2081 343.87L33.3081 343.763C33.8187 344.038 34.3484 344.277 34.8932 344.477V350.089C34.9404 351.299 35.4542 352.443 36.3268 353.282C37.1993 354.121 38.3629 354.59 39.5734 354.59C40.784 354.59 41.9476 354.121 42.8201 353.282C43.6927 352.443 44.2065 351.299 44.2537 350.089V344.534C44.575 344.413 44.8963 344.284 45.2105 344.134L49.7944 348.083C50.7383 348.89 51.9645 349.29 53.2031 349.193C54.4417 349.097 55.5912 348.513 56.3989 347.569C57.2065 346.625 57.6061 345.398 57.5097 344.16C57.4132 342.921 56.8288 341.772 55.8848 340.964L51.815 337.451C51.9578 337.13 52.0863 336.801 52.2077 336.473H58.2124C59.4547 336.473 60.646 335.98 61.5244 335.101C62.4028 334.223 62.8963 333.031 62.8963 331.789V331.789C62.8944 330.548 62.4001 329.359 61.5219 328.482C60.6437 327.605 59.4534 327.112 58.2124 327.112V327.112Z" fill="#FFE18B"/>
<path d="M58.2124 327.112H52.122C52.0078 326.798 51.8792 326.491 51.7436 326.191L56.1775 322.264C56.647 321.86 57.0315 321.367 57.3087 320.813C57.5858 320.259 57.7502 319.655 57.7922 319.037C57.8341 318.419 57.7529 317.799 57.5532 317.212C57.3534 316.626 57.0392 316.085 56.6287 315.621C56.2182 315.157 55.7196 314.779 55.1619 314.51C54.6042 314.24 53.9984 314.084 53.3799 314.05C52.7613 314.017 52.1422 314.106 51.5586 314.314C50.9749 314.522 50.4383 314.843 49.98 315.26L45.3104 319.394C45.239 319.458 45.1819 319.537 45.1105 319.608C44.8178 319.473 44.5179 319.351 44.2109 319.237V313.575C44.1636 312.365 43.6499 311.221 42.7773 310.382C41.9047 309.543 40.7412 309.074 39.5306 309.074C38.32 309.074 37.1565 309.543 36.2839 310.382C35.4114 311.221 34.8976 312.365 34.8503 313.575V319.237C34.4176 319.396 33.9934 319.577 33.5794 319.78C33.448 319.617 33.3048 319.464 33.151 319.323L28.4458 315.26C27.4987 314.505 26.2962 314.147 25.0905 314.259C23.8848 314.372 22.7696 314.948 21.979 315.865C21.1883 316.782 20.7836 317.97 20.8498 319.179C20.916 320.388 21.4479 321.525 22.3339 322.35L27.0606 326.427C27.098 326.46 27.1386 326.488 27.182 326.513C27.0963 326.713 27.0249 326.92 26.9464 327.127H21.0773C19.8431 327.132 18.6612 327.626 17.7892 328.499C16.9172 329.372 16.4258 330.555 16.422 331.789V331.789C16.422 333.03 16.9145 334.22 17.7913 335.099C18.6682 335.977 19.8577 336.471 21.0987 336.473H26.9107L27.0535 336.859H27.0106L22.3339 340.993C21.4506 341.828 20.9264 342.973 20.8723 344.188C20.8182 345.402 21.2383 346.59 22.0439 347.5C22.8495 348.411 23.9774 348.972 25.1893 349.066C26.4013 349.16 27.6023 348.779 28.5386 348.004L33.2081 343.87L33.3081 343.763C33.8187 344.038 34.3484 344.277 34.8932 344.477V350.089C34.9404 351.299 35.4542 352.443 36.3268 353.282C37.1993 354.121 38.3629 354.59 39.5734 354.59C40.784 354.59 41.9476 354.121 42.8201 353.282C43.6927 352.443 44.2065 351.299 44.2537 350.089V344.534C44.575 344.413 44.8963 344.284 45.2105 344.134L49.7944 348.083C50.7383 348.89 51.9645 349.29 53.2031 349.193C54.4417 349.097 55.5912 348.513 56.3989 347.569C57.2065 346.625 57.6061 345.398 57.5097 344.16C57.4132 342.921 56.8288 341.772 55.8848 340.964L51.815 337.451C51.9578 337.13 52.0863 336.801 52.2077 336.473H58.2124C59.4547 336.473 60.646 335.98 61.5244 335.101C62.4028 334.223 62.8963 333.031 62.8963 331.789V331.789C62.8944 330.548 62.4001 329.359 61.5219 328.482C60.6437 327.605 59.4534 327.112 58.2124 327.112V327.112Z" fill="#FFE18B"/>
<path d="M58.2124 327.112H52.122C52.0078 326.798 51.8792 326.491 51.7436 326.191L56.1775 322.264C56.647 321.86 57.0315 321.367 57.3087 320.813C57.5858 320.259 57.7502 319.655 57.7922 319.037C57.8341 318.419 57.7529 317.799 57.5532 317.212C57.3534 316.626 57.0392 316.085 56.6287 315.621C56.2182 315.157 55.7196 314.779 55.1619 314.51C54.6042 314.24 53.9984 314.084 53.3799 314.05C52.7613 314.017 52.1422 314.106 51.5586 314.314C50.9749 314.522 50.4383 314.843 49.98 315.26L45.3104 319.394C45.239 319.458 45.1819 319.537 45.1105 319.608C44.8178 319.473 44.5179 319.351 44.2109 319.237V313.575C44.1636 312.365 43.6499 311.221 42.7773 310.382C41.9047 309.543 40.7412 309.074 39.5306 309.074C38.32 309.074 37.1565 309.543 36.2839 310.382C35.4114 311.221 34.8976 312.365 34.8503 313.575V319.237C34.4176 319.396 33.9934 319.577 33.5794 319.78C33.448 319.617 33.3048 319.464 33.151 319.323L28.4458 315.26C27.4987 314.505 26.2962 314.147 25.0905 314.259C23.8848 314.372 22.7696 314.948 21.979 315.865C21.1883 316.782 20.7836 317.97 20.8498 319.179C20.916 320.388 21.4479 321.525 22.3339 322.35L27.0606 326.427C27.098 326.46 27.1386 326.488 27.182 326.513C27.0963 326.713 27.0249 326.92 26.9464 327.127H21.0773C19.8431 327.132 18.6612 327.626 17.7892 328.499C16.9172 329.372 16.4258 330.555 16.422 331.789V331.789C16.422 333.03 16.9145 334.22 17.7913 335.099C18.6682 335.977 19.8577 336.471 21.0987 336.473H26.9107L27.0535 336.859H27.0106L22.3339 340.993C21.4506 341.828 20.9264 342.973 20.8723 344.188C20.8182 345.402 21.2383 346.59 22.0439 347.5C22.8495 348.411 23.9774 348.972 25.1893 349.066C26.4013 349.16 27.6023 348.779 28.5386 348.004L33.2081 343.87L33.3081 343.763C33.8187 344.038 34.3484 344.277 34.8932 344.477V350.089C34.9404 351.299 35.4542 352.443 36.3268 353.282C37.1993 354.121 38.3629 354.59 39.5734 354.59C40.784 354.59 41.9476 354.121 42.8201 353.282C43.6927 352.443 44.2065 351.299 44.2537 350.089V344.534C44.575 344.413 44.8963 344.284 45.2105 344.134L49.7944 348.083C50.7383 348.89 51.9645 349.29 53.2031 349.193C54.4417 349.097 55.5912 348.513 56.3989 347.569C57.2065 346.625 57.6061 345.398 57.5097 344.16C57.4132 342.921 56.8288 341.772 55.8848 340.964L51.815 337.451C51.9578 337.13 52.0863 336.801 52.2077 336.473H58.2124C59.4547 336.473 60.646 335.98 61.5244 335.101C62.4028 334.223 62.8963 333.031 62.8963 331.789V331.789C62.8944 330.548 62.4001 329.359 61.5219 328.482C60.6437 327.605 59.4534 327.112 58.2124 327.112V327.112Z" fill="#FFE18B"/>
<path d="M58.2124 327.112H52.122C52.0078 326.798 51.8792 326.491 51.7436 326.191L56.1775 322.264C56.647 321.86 57.0315 321.367 57.3087 320.813C57.5858 320.259 57.7502 319.655 57.7922 319.037C57.8341 318.419 57.7529 317.799 57.5532 317.212C57.3534 316.626 57.0392 316.085 56.6287 315.621C56.2182 315.157 55.7196 314.779 55.1619 314.51C54.6042 314.24 53.9984 314.084 53.3799 314.05C52.7613 314.017 52.1422 314.106 51.5586 314.314C50.9749 314.522 50.4383 314.843 49.98 315.26L45.3104 319.394C45.239 319.458 45.1819 319.537 45.1105 319.608C44.8178 319.473 44.5179 319.351 44.2109 319.237V313.575C44.1636 312.365 43.6499 311.221 42.7773 310.382C41.9047 309.543 40.7412 309.074 39.5306 309.074C38.32 309.074 37.1565 309.543 36.2839 310.382C35.4114 311.221 34.8976 312.365 34.8503 313.575V319.237C34.4176 319.396 33.9934 319.577 33.5794 319.78C33.448 319.617 33.3048 319.464 33.151 319.323L28.4458 315.26C27.4987 314.505 26.2962 314.147 25.0905 314.259C23.8848 314.372 22.7696 314.948 21.979 315.865C21.1883 316.782 20.7836 317.97 20.8498 319.179C20.916 320.388 21.4479 321.525 22.3339 322.35L27.0606 326.427C27.098 326.46 27.1386 326.488 27.182 326.513C27.0963 326.713 27.0249 326.92 26.9464 327.127H21.0773C19.8431 327.132 18.6612 327.626 17.7892 328.499C16.9172 329.372 16.4258 330.555 16.422 331.789V331.789C16.422 333.03 16.9145 334.22 17.7913 335.099C18.6682 335.977 19.8577 336.471 21.0987 336.473H26.9107L27.0535 336.859H27.0106L22.3339 340.993C21.4506 341.828 20.9264 342.973 20.8723 344.188C20.8182 345.402 21.2383 346.59 22.0439 347.5C22.8495 348.411 23.9774 348.972 25.1893 349.066C26.4013 349.16 27.6023 348.779 28.5386 348.004L33.2081 343.87L33.3081 343.763C33.8187 344.038 34.3484 344.277 34.8932 344.477V350.089C34.9404 351.299 35.4542 352.443 36.3268 353.282C37.1993 354.121 38.3629 354.59 39.5734 354.59C40.784 354.59 41.9476 354.121 42.8201 353.282C43.6927 352.443 44.2065 351.299 44.2537 350.089V344.534C44.575 344.413 44.8963 344.284 45.2105 344.134L49.7944 348.083C50.7383 348.89 51.9645 349.29 53.2031 349.193C54.4417 349.097 55.5912 348.513 56.3989 347.569C57.2065 346.625 57.6061 345.398 57.5097 344.16C57.4132 342.921 56.8288 341.772 55.8848 340.964L51.815 337.451C51.9578 337.13 52.0863 336.801 52.2077 336.473H58.2124C59.4547 336.473 60.646 335.98 61.5244 335.101C62.4028 334.223 62.8963 333.031 62.8963 331.789V331.789C62.8944 330.548 62.4001 329.359 61.5219 328.482C60.6437 327.605 59.4534 327.112 58.2124 327.112V327.112Z" fill="#FFE18B"/>
<path d="M58.2124 327.112H52.122C52.0078 326.798 51.8792 326.491 51.7436 326.191L56.1775 322.264C56.647 321.86 57.0315 321.367 57.3087 320.813C57.5858 320.259 57.7502 319.655 57.7922 319.037C57.8341 318.419 57.7529 317.799 57.5532 317.212C57.3534 316.626 57.0392 316.085 56.6287 315.621C56.2182 315.157 55.7196 314.779 55.1619 314.51C54.6042 314.24 53.9984 314.084 53.3799 314.05C52.7613 314.017 52.1422 314.106 51.5586 314.314C50.9749 314.522 50.4383 314.843 49.98 315.26L45.3104 319.394C45.239 319.458 45.1819 319.537 45.1105 319.608C44.8178 319.473 44.5179 319.351 44.2109 319.237V313.575C44.1636 312.365 43.6499 311.221 42.7773 310.382C41.9047 309.543 40.7412 309.074 39.5306 309.074C38.32 309.074 37.1565 309.543 36.2839 310.382C35.4114 311.221 34.8976 312.365 34.8503 313.575V319.237C34.4176 319.396 33.9934 319.577 33.5794 319.78C33.448 319.617 33.3048 319.464 33.151 319.323L28.4458 315.26C27.4987 314.505 26.2962 314.147 25.0905 314.259C23.8848 314.372 22.7696 314.948 21.979 315.865C21.1883 316.782 20.7836 317.97 20.8498 319.179C20.916 320.388 21.4479 321.525 22.3339 322.35L27.0606 326.427C27.098 326.46 27.1386 326.488 27.182 326.513C27.0963 326.713 27.0249 326.92 26.9464 327.127H21.0773C19.8431 327.132 18.6612 327.626 17.7892 328.499C16.9172 329.372 16.4258 330.555 16.422 331.789V331.789C16.422 333.03 16.9145 334.22 17.7913 335.099C18.6682 335.977 19.8577 336.471 21.0987 336.473H26.9107L27.0535 336.859H27.0106L22.3339 340.993C21.4506 341.828 20.9264 342.973 20.8723 344.188C20.8182 345.402 21.2383 346.59 22.0439 347.5C22.8495 348.411 23.9774 348.972 25.1893 349.066C26.4013 349.16 27.6023 348.779 28.5386 348.004L33.2081 343.87L33.3081 343.763C33.8187 344.038 34.3484 344.277 34.8932 344.477V350.089C34.9404 351.299 35.4542 352.443 36.3268 353.282C37.1993 354.121 38.3629 354.59 39.5734 354.59C40.784 354.59 41.9476 354.121 42.8201 353.282C43.6927 352.443 44.2065 351.299 44.2537 350.089V344.534C44.575 344.413 44.8963 344.284 45.2105 344.134L49.7944 348.083C50.7383 348.89 51.9645 349.29 53.2031 349.193C54.4417 349.097 55.5912 348.513 56.3989 347.569C57.2065 346.625 57.6061 345.398 57.5097 344.16C57.4132 342.921 56.8288 341.772 55.8848 340.964L51.815 337.451C51.9578 337.13 52.0863 336.801 52.2077 336.473H58.2124C59.4547 336.473 60.646 335.98 61.5244 335.101C62.4028 334.223 62.8963 333.031 62.8963 331.789V331.789C62.8944 330.548 62.4001 329.359 61.5219 328.482C60.6437 327.605 59.4534 327.112 58.2124 327.112V327.112Z" fill="#FFE18B"/>
<path d="M58.2124 327.112H52.122C52.0078 326.798 51.8792 326.491 51.7436 326.191L56.1775 322.264C56.647 321.86 57.0315 321.367 57.3087 320.813C57.5858 320.259 57.7502 319.655 57.7922 319.037C57.8341 318.419 57.7529 317.799 57.5532 317.212C57.3534 316.626 57.0392 316.085 56.6287 315.621C56.2182 315.157 55.7196 314.779 55.1619 314.51C54.6042 314.24 53.9984 314.084 53.3799 314.05C52.7613 314.017 52.1422 314.106 51.5586 314.314C50.9749 314.522 50.4383 314.843 49.98 315.26L45.3104 319.394C45.239 319.458 45.1819 319.537 45.1105 319.608C44.8178 319.473 44.5179 319.351 44.2109 319.237V313.575C44.1636 312.365 43.6499 311.221 42.7773 310.382C41.9047 309.543 40.7412 309.074 39.5306 309.074C38.32 309.074 37.1565 309.543 36.2839 310.382C35.4114 311.221 34.8976 312.365 34.8503 313.575V319.237C34.4176 319.396 33.9934 319.577 33.5794 319.78C33.448 319.617 33.3048 319.464 33.151 319.323L28.4458 315.26C27.4987 314.505 26.2962 314.147 25.0905 314.259C23.8848 314.372 22.7696 314.948 21.979 315.865C21.1883 316.782 20.7836 317.97 20.8498 319.179C20.916 320.388 21.4479 321.525 22.3339 322.35L27.0606 326.427C27.098 326.46 27.1386 326.488 27.182 326.513C27.0963 326.713 27.0249 326.92 26.9464 327.127H21.0773C19.8431 327.132 18.6612 327.626 17.7892 328.499C16.9172 329.372 16.4258 330.555 16.422 331.789V331.789C16.422 333.03 16.9145 334.22 17.7913 335.099C18.6682 335.977 19.8577 336.471 21.0987 336.473H26.9107L27.0535 336.859H27.0106L22.3339 340.993C21.4506 341.828 20.9264 342.973 20.8723 344.188C20.8182 345.402 21.2383 346.59 22.0439 347.5C22.8495 348.411 23.9774 348.972 25.1893 349.066C26.4013 349.16 27.6023 348.779 28.5386 348.004L33.2081 343.87L33.3081 343.763C33.8187 344.038 34.3484 344.277 34.8932 344.477V350.089C34.9404 351.299 35.4542 352.443 36.3268 353.282C37.1993 354.121 38.3629 354.59 39.5734 354.59C40.784 354.59 41.9476 354.121 42.8201 353.282C43.6927 352.443 44.2065 351.299 44.2537 350.089V344.534C44.575 344.413 44.8963 344.284 45.2105 344.134L49.7944 348.083C50.7383 348.89 51.9645 349.29 53.2031 349.193C54.4417 349.097 55.5912 348.513 56.3989 347.569C57.2065 346.625 57.6061 345.398 57.5097 344.16C57.4132 342.921 56.8288 341.772 55.8848 340.964L51.815 337.451C51.9578 337.13 52.0863 336.801 52.2077 336.473H58.2124C59.4547 336.473 60.646 335.98 61.5244 335.101C62.4028 334.223 62.8963 333.031 62.8963 331.789V331.789C62.8944 330.548 62.4001 329.359 61.5219 328.482C60.6437 327.605 59.4534 327.112 58.2124 327.112V327.112Z" fill="#FFE18B"/>
<path d="M108.05 344.355H101.988C101.874 344.041 101.745 343.741 101.602 343.442L106.043 339.515C106.927 338.679 107.451 337.534 107.505 336.319C107.559 335.105 107.139 333.917 106.333 333.007C105.528 332.096 104.4 331.535 103.188 331.441C101.976 331.347 100.775 331.728 99.8386 332.503L95.1691 336.637C95.0988 336.705 95.0321 336.777 94.9692 336.851C94.6764 336.716 94.3694 336.594 94.0624 336.48V330.818C94.0151 329.608 93.5013 328.464 92.6288 327.625C91.7562 326.786 90.5927 326.317 89.3821 326.317C88.1715 326.317 87.008 326.786 86.1354 327.625C85.2629 328.464 84.7491 329.608 84.7018 330.818V336.48C84.2734 336.637 83.8522 336.823 83.4381 337.023C83.3046 336.862 83.1616 336.709 83.0097 336.566L78.283 332.489C77.8218 332.059 77.2787 331.727 76.6861 331.512C76.0935 331.298 75.4637 331.205 74.8343 331.239C74.205 331.273 73.589 331.435 73.0234 331.713C72.4578 331.991 71.9542 332.38 71.5426 332.858C71.1311 333.335 70.8201 333.891 70.6284 334.491C70.4367 335.091 70.3681 335.724 70.4268 336.352C70.4855 336.98 70.6702 337.589 70.9699 338.143C71.2697 338.698 71.6782 339.186 72.1711 339.579L76.8907 343.656C76.9318 343.687 76.9747 343.715 77.0192 343.741C76.9335 343.941 76.855 344.148 76.7836 344.355H70.9145C69.6742 344.355 68.4846 344.848 67.6076 345.725C66.7305 346.602 66.2378 347.792 66.2378 349.032C66.2378 350.273 66.7303 351.463 67.6071 352.342C68.484 353.22 69.6735 353.714 70.9145 353.716H76.7265C76.7693 353.845 76.8193 353.98 76.8693 354.109C76.8693 354.109 76.8693 354.109 76.8264 354.109L72.1497 358.243C71.666 358.643 71.2677 359.137 70.9786 359.695C70.6895 360.252 70.5155 360.862 70.467 361.488C70.4184 362.114 70.4963 362.744 70.6959 363.339C70.8956 363.935 71.2129 364.484 71.6291 364.955C72.0453 365.425 72.5519 365.807 73.1187 366.077C73.6854 366.348 74.3008 366.502 74.9282 366.53C75.5557 366.558 76.1823 366.459 76.7709 366.24C77.3595 366.021 77.898 365.686 78.3544 365.254L83.0239 361.12L83.1239 361.02C83.6341 361.292 84.1612 361.53 84.7018 361.734V367.382C84.7491 368.592 85.2629 369.736 86.1354 370.575C87.008 371.414 88.1715 371.883 89.3821 371.883C90.5927 371.883 91.7562 371.414 92.6288 370.575C93.5013 369.736 94.0151 368.592 94.0624 367.382V361.741C94.3908 361.62 94.7121 361.491 95.0263 361.341L99.603 365.29C100.068 365.692 100.608 365.998 101.191 366.191C101.775 366.384 102.39 366.461 103.003 366.416C103.616 366.371 104.214 366.206 104.764 365.93C105.313 365.654 105.802 365.273 106.204 364.808C106.606 364.343 106.912 363.803 107.105 363.22C107.298 362.636 107.375 362.021 107.33 361.408C107.285 360.795 107.12 360.197 106.844 359.647C106.568 359.098 106.187 358.609 105.722 358.207L101.645 354.694C101.795 354.373 101.924 354.044 102.045 353.716H108.05C109.291 353.714 110.48 353.22 111.357 352.342C112.234 351.463 112.726 350.273 112.726 349.032C112.726 348.418 112.605 347.81 112.37 347.242C112.135 346.675 111.791 346.16 111.357 345.725C110.922 345.291 110.407 344.946 109.839 344.711C109.272 344.476 108.664 344.355 108.05 344.355V344.355Z" fill="#FFE18B"/>
<path d="M108.05 344.355H101.988C101.874 344.041 101.745 343.741 101.602 343.442L106.043 339.515C106.927 338.679 107.451 337.534 107.505 336.319C107.559 335.105 107.139 333.917 106.333 333.007C105.528 332.096 104.4 331.535 103.188 331.441C101.976 331.347 100.775 331.728 99.8386 332.503L95.1691 336.637C95.0988 336.705 95.0321 336.777 94.9692 336.851C94.6764 336.716 94.3694 336.594 94.0624 336.48V330.818C94.0151 329.608 93.5013 328.464 92.6288 327.625C91.7562 326.786 90.5927 326.317 89.3821 326.317C88.1715 326.317 87.008 326.786 86.1354 327.625C85.2629 328.464 84.7491 329.608 84.7018 330.818V336.48C84.2734 336.637 83.8522 336.823 83.4381 337.023C83.3046 336.862 83.1616 336.709 83.0097 336.566L78.283 332.489C77.8218 332.059 77.2787 331.727 76.6861 331.512C76.0935 331.298 75.4637 331.205 74.8343 331.239C74.205 331.273 73.589 331.435 73.0234 331.713C72.4578 331.991 71.9542 332.38 71.5426 332.858C71.1311 333.335 70.8201 333.891 70.6284 334.491C70.4367 335.091 70.3681 335.724 70.4268 336.352C70.4855 336.98 70.6702 337.589 70.9699 338.143C71.2697 338.698 71.6782 339.186 72.1711 339.579L76.8907 343.656C76.9318 343.687 76.9747 343.715 77.0192 343.741C76.9335 343.941 76.855 344.148 76.7836 344.355H70.9145C69.6742 344.355 68.4846 344.848 67.6076 345.725C66.7305 346.602 66.2378 347.792 66.2378 349.032C66.2378 350.273 66.7303 351.463 67.6071 352.342C68.484 353.22 69.6735 353.714 70.9145 353.716H76.7265C76.7693 353.845 76.8193 353.98 76.8693 354.109C76.8693 354.109 76.8693 354.109 76.8264 354.109L72.1497 358.243C71.666 358.643 71.2677 359.137 70.9786 359.695C70.6895 360.252 70.5155 360.862 70.467 361.488C70.4184 362.114 70.4963 362.744 70.6959 363.339C70.8956 363.935 71.2129 364.484 71.6291 364.955C72.0453 365.425 72.5519 365.807 73.1187 366.077C73.6854 366.348 74.3008 366.502 74.9282 366.53C75.5557 366.558 76.1823 366.459 76.7709 366.24C77.3595 366.021 77.898 365.686 78.3544 365.254L83.0239 361.12L83.1239 361.02C83.6341 361.292 84.1612 361.53 84.7018 361.734V367.382C84.7491 368.592 85.2629 369.736 86.1354 370.575C87.008 371.414 88.1715 371.883 89.3821 371.883C90.5927 371.883 91.7562 371.414 92.6288 370.575C93.5013 369.736 94.0151 368.592 94.0624 367.382V361.741C94.3908 361.62 94.7121 361.491 95.0263 361.341L99.603 365.29C100.068 365.692 100.608 365.998 101.191 366.191C101.775 366.384 102.39 366.461 103.003 366.416C103.616 366.371 104.214 366.206 104.764 365.93C105.313 365.654 105.802 365.273 106.204 364.808C106.606 364.343 106.912 363.803 107.105 363.22C107.298 362.636 107.375 362.021 107.33 361.408C107.285 360.795 107.12 360.197 106.844 359.647C106.568 359.098 106.187 358.609 105.722 358.207L101.645 354.694C101.795 354.373 101.924 354.044 102.045 353.716H108.05C109.291 353.714 110.48 353.22 111.357 352.342C112.234 351.463 112.726 350.273 112.726 349.032C112.726 348.418 112.605 347.81 112.37 347.242C112.135 346.675 111.791 346.16 111.357 345.725C110.922 345.291 110.407 344.946 109.839 344.711C109.272 344.476 108.664 344.355 108.05 344.355V344.355Z" fill="#FFE18B"/>
<path d="M108.05 344.355H101.988C101.874 344.041 101.745 343.741 101.602 343.442L106.043 339.515C106.927 338.679 107.451 337.534 107.505 336.319C107.559 335.105 107.139 333.917 106.333 333.007C105.528 332.096 104.4 331.535 103.188 331.441C101.976 331.347 100.775 331.728 99.8386 332.503L95.1691 336.637C95.0988 336.705 95.0321 336.777 94.9692 336.851C94.6764 336.716 94.3694 336.594 94.0624 336.48V330.818C94.0151 329.608 93.5013 328.464 92.6288 327.625C91.7562 326.786 90.5927 326.317 89.3821 326.317C88.1715 326.317 87.008 326.786 86.1354 327.625C85.2629 328.464 84.7491 329.608 84.7018 330.818V336.48C84.2734 336.637 83.8522 336.823 83.4381 337.023C83.3046 336.862 83.1616 336.709 83.0097 336.566L78.283 332.489C77.8218 332.059 77.2787 331.727 76.6861 331.512C76.0935 331.298 75.4637 331.205 74.8343 331.239C74.205 331.273 73.589 331.435 73.0234 331.713C72.4578 331.991 71.9542 332.38 71.5426 332.858C71.1311 333.335 70.8201 333.891 70.6284 334.491C70.4367 335.091 70.3681 335.724 70.4268 336.352C70.4855 336.98 70.6702 337.589 70.9699 338.143C71.2697 338.698 71.6782 339.186 72.1711 339.579L76.8907 343.656C76.9318 343.687 76.9747 343.715 77.0192 343.741C76.9335 343.941 76.855 344.148 76.7836 344.355H70.9145C69.6742 344.355 68.4846 344.848 67.6076 345.725C66.7305 346.602 66.2378 347.792 66.2378 349.032C66.2378 350.273 66.7303 351.463 67.6071 352.342C68.484 353.22 69.6735 353.714 70.9145 353.716H76.7265C76.7693 353.845 76.8193 353.98 76.8693 354.109C76.8693 354.109 76.8693 354.109 76.8264 354.109L72.1497 358.243C71.666 358.643 71.2677 359.137 70.9786 359.695C70.6895 360.252 70.5155 360.862 70.467 361.488C70.4184 362.114 70.4963 362.744 70.6959 363.339C70.8956 363.935 71.2129 364.484 71.6291 364.955C72.0453 365.425 72.5519 365.807 73.1187 366.077C73.6854 366.348 74.3008 366.502 74.9282 366.53C75.5557 366.558 76.1823 366.459 76.7709 366.24C77.3595 366.021 77.898 365.686 78.3544 365.254L83.0239 361.12L83.1239 361.02C83.6341 361.292 84.1612 361.53 84.7018 361.734V367.382C84.7491 368.592 85.2629 369.736 86.1354 370.575C87.008 371.414 88.1715 371.883 89.3821 371.883C90.5927 371.883 91.7562 371.414 92.6288 370.575C93.5013 369.736 94.0151 368.592 94.0624 367.382V361.741C94.3908 361.62 94.7121 361.491 95.0263 361.341L99.603 365.29C100.068 365.692 100.608 365.998 101.191 366.191C101.775 366.384 102.39 366.461 103.003 366.416C103.616 366.371 104.214 366.206 104.764 365.93C105.313 365.654 105.802 365.273 106.204 364.808C106.606 364.343 106.912 363.803 107.105 363.22C107.298 362.636 107.375 362.021 107.33 361.408C107.285 360.795 107.12 360.197 106.844 359.647C106.568 359.098 106.187 358.609 105.722 358.207L101.645 354.694C101.795 354.373 101.924 354.044 102.045 353.716H108.05C109.291 353.714 110.48 353.22 111.357 352.342C112.234 351.463 112.726 350.273 112.726 349.032C112.726 348.418 112.605 347.81 112.37 347.242C112.135 346.675 111.791 346.16 111.357 345.725C110.922 345.291 110.407 344.946 109.839 344.711C109.272 344.476 108.664 344.355 108.05 344.355V344.355Z" fill="#FFE18B"/>
<path d="M108.05 344.355H101.988C101.874 344.041 101.745 343.741 101.602 343.442L106.043 339.515C106.927 338.679 107.451 337.534 107.505 336.319C107.559 335.105 107.139 333.917 106.333 333.007C105.528 332.096 104.4 331.535 103.188 331.441C101.976 331.347 100.775 331.728 99.8386 332.503L95.1691 336.637C95.0988 336.705 95.0321 336.777 94.9692 336.851C94.6764 336.716 94.3694 336.594 94.0624 336.48V330.818C94.0151 329.608 93.5013 328.464 92.6288 327.625C91.7562 326.786 90.5927 326.317 89.3821 326.317C88.1715 326.317 87.008 326.786 86.1354 327.625C85.2629 328.464 84.7491 329.608 84.7018 330.818V336.48C84.2734 336.637 83.8522 336.823 83.4381 337.023C83.3046 336.862 83.1616 336.709 83.0097 336.566L78.283 332.489C77.8218 332.059 77.2787 331.727 76.6861 331.512C76.0935 331.298 75.4637 331.205 74.8343 331.239C74.205 331.273 73.589 331.435 73.0234 331.713C72.4578 331.991 71.9542 332.38 71.5426 332.858C71.1311 333.335 70.8201 333.891 70.6284 334.491C70.4367 335.091 70.3681 335.724 70.4268 336.352C70.4855 336.98 70.6702 337.589 70.9699 338.143C71.2697 338.698 71.6782 339.186 72.1711 339.579L76.8907 343.656C76.9318 343.687 76.9747 343.715 77.0192 343.741C76.9335 343.941 76.855 344.148 76.7836 344.355H70.9145C69.6742 344.355 68.4846 344.848 67.6076 345.725C66.7305 346.602 66.2378 347.792 66.2378 349.032C66.2378 350.273 66.7303 351.463 67.6071 352.342C68.484 353.22 69.6735 353.714 70.9145 353.716H76.7265C76.7693 353.845 76.8193 353.98 76.8693 354.109C76.8693 354.109 76.8693 354.109 76.8264 354.109L72.1497 358.243C71.666 358.643 71.2677 359.137 70.9786 359.695C70.6895 360.252 70.5155 360.862 70.467 361.488C70.4184 362.114 70.4963 362.744 70.6959 363.339C70.8956 363.935 71.2129 364.484 71.6291 364.955C72.0453 365.425 72.5519 365.807 73.1187 366.077C73.6854 366.348 74.3008 366.502 74.9282 366.53C75.5557 366.558 76.1823 366.459 76.7709 366.24C77.3595 366.021 77.898 365.686 78.3544 365.254L83.0239 361.12L83.1239 361.02C83.6341 361.292 84.1612 361.53 84.7018 361.734V367.382C84.7491 368.592 85.2629 369.736 86.1354 370.575C87.008 371.414 88.1715 371.883 89.3821 371.883C90.5927 371.883 91.7562 371.414 92.6288 370.575C93.5013 369.736 94.0151 368.592 94.0624 367.382V361.741C94.3908 361.62 94.7121 361.491 95.0263 361.341L99.603 365.29C100.068 365.692 100.608 365.998 101.191 366.191C101.775 366.384 102.39 366.461 103.003 366.416C103.616 366.371 104.214 366.206 104.764 365.93C105.313 365.654 105.802 365.273 106.204 364.808C106.606 364.343 106.912 363.803 107.105 363.22C107.298 362.636 107.375 362.021 107.33 361.408C107.285 360.795 107.12 360.197 106.844 359.647C106.568 359.098 106.187 358.609 105.722 358.207L101.645 354.694C101.795 354.373 101.924 354.044 102.045 353.716H108.05C109.291 353.714 110.48 353.22 111.357 352.342C112.234 351.463 112.726 350.273 112.726 349.032C112.726 348.418 112.605 347.81 112.37 347.242C112.135 346.675 111.791 346.16 111.357 345.725C110.922 345.291 110.407 344.946 109.839 344.711C109.272 344.476 108.664 344.355 108.05 344.355V344.355Z" fill="#FFE18B"/>
<path d="M108.05 344.355H101.988C101.874 344.041 101.745 343.741 101.602 343.442L106.043 339.515C106.927 338.679 107.451 337.534 107.505 336.319C107.559 335.105 107.139 333.917 106.333 333.007C105.528 332.096 104.4 331.535 103.188 331.441C101.976 331.347 100.775 331.728 99.8386 332.503L95.1691 336.637C95.0988 336.705 95.0321 336.777 94.9692 336.851C94.6764 336.716 94.3694 336.594 94.0624 336.48V330.818C94.0151 329.608 93.5013 328.464 92.6288 327.625C91.7562 326.786 90.5927 326.317 89.3821 326.317C88.1715 326.317 87.008 326.786 86.1354 327.625C85.2629 328.464 84.7491 329.608 84.7018 330.818V336.48C84.2734 336.637 83.8522 336.823 83.4381 337.023C83.3046 336.862 83.1616 336.709 83.0097 336.566L78.283 332.489C77.8218 332.059 77.2787 331.727 76.6861 331.512C76.0935 331.298 75.4637 331.205 74.8343 331.239C74.205 331.273 73.589 331.435 73.0234 331.713C72.4578 331.991 71.9542 332.38 71.5426 332.858C71.1311 333.335 70.8201 333.891 70.6284 334.491C70.4367 335.091 70.3681 335.724 70.4268 336.352C70.4855 336.98 70.6702 337.589 70.9699 338.143C71.2697 338.698 71.6782 339.186 72.1711 339.579L76.8907 343.656C76.9318 343.687 76.9747 343.715 77.0192 343.741C76.9335 343.941 76.855 344.148 76.7836 344.355H70.9145C69.6742 344.355 68.4846 344.848 67.6076 345.725C66.7305 346.602 66.2378 347.792 66.2378 349.032C66.2378 350.273 66.7303 351.463 67.6071 352.342C68.484 353.22 69.6735 353.714 70.9145 353.716H76.7265C76.7693 353.845 76.8193 353.98 76.8693 354.109C76.8693 354.109 76.8693 354.109 76.8264 354.109L72.1497 358.243C71.666 358.643 71.2677 359.137 70.9786 359.695C70.6895 360.252 70.5155 360.862 70.467 361.488C70.4184 362.114 70.4963 362.744 70.6959 363.339C70.8956 363.935 71.2129 364.484 71.6291 364.955C72.0453 365.425 72.5519 365.807 73.1187 366.077C73.6854 366.348 74.3008 366.502 74.9282 366.53C75.5557 366.558 76.1823 366.459 76.7709 366.24C77.3595 366.021 77.898 365.686 78.3544 365.254L83.0239 361.12L83.1239 361.02C83.6341 361.292 84.1612 361.53 84.7018 361.734V367.382C84.7491 368.592 85.2629 369.736 86.1354 370.575C87.008 371.414 88.1715 371.883 89.3821 371.883C90.5927 371.883 91.7562 371.414 92.6288 370.575C93.5013 369.736 94.0151 368.592 94.0624 367.382V361.741C94.3908 361.62 94.7121 361.491 95.0263 361.341L99.603 365.29C100.068 365.692 100.608 365.998 101.191 366.191C101.775 366.384 102.39 366.461 103.003 366.416C103.616 366.371 104.214 366.206 104.764 365.93C105.313 365.654 105.802 365.273 106.204 364.808C106.606 364.343 106.912 363.803 107.105 363.22C107.298 362.636 107.375 362.021 107.33 361.408C107.285 360.795 107.12 360.197 106.844 359.647C106.568 359.098 106.187 358.609 105.722 358.207L101.645 354.694C101.795 354.373 101.924 354.044 102.045 353.716H108.05C109.291 353.714 110.48 353.22 111.357 352.342C112.234 351.463 112.726 350.273 112.726 349.032C112.726 348.418 112.605 347.81 112.37 347.242C112.135 346.675 111.791 346.16 111.357 345.725C110.922 345.291 110.407 344.946 109.839 344.711C109.272 344.476 108.664 344.355 108.05 344.355V344.355Z" fill="#FFE18B"/>
<path d="M108.05 344.355H101.988C101.874 344.041 101.745 343.741 101.602 343.442L106.043 339.515C106.927 338.679 107.451 337.534 107.505 336.319C107.559 335.105 107.139 333.917 106.333 333.007C105.528 332.096 104.4 331.535 103.188 331.441C101.976 331.347 100.775 331.728 99.8386 332.503L95.1691 336.637C95.0988 336.705 95.0321 336.777 94.9692 336.851C94.6764 336.716 94.3694 336.594 94.0624 336.48V330.818C94.0151 329.608 93.5013 328.464 92.6288 327.625C91.7562 326.786 90.5927 326.317 89.3821 326.317C88.1715 326.317 87.008 326.786 86.1354 327.625C85.2629 328.464 84.7491 329.608 84.7018 330.818V336.48C84.2734 336.637 83.8522 336.823 83.4381 337.023C83.3046 336.862 83.1616 336.709 83.0097 336.566L78.283 332.489C77.8218 332.059 77.2787 331.727 76.6861 331.512C76.0935 331.298 75.4637 331.205 74.8343 331.239C74.205 331.273 73.589 331.435 73.0234 331.713C72.4578 331.991 71.9542 332.38 71.5426 332.858C71.1311 333.335 70.8201 333.891 70.6284 334.491C70.4367 335.091 70.3681 335.724 70.4268 336.352C70.4855 336.98 70.6702 337.589 70.9699 338.143C71.2697 338.698 71.6782 339.186 72.1711 339.579L76.8907 343.656C76.9318 343.687 76.9747 343.715 77.0192 343.741C76.9335 343.941 76.855 344.148 76.7836 344.355H70.9145C69.6742 344.355 68.4846 344.848 67.6076 345.725C66.7305 346.602 66.2378 347.792 66.2378 349.032C66.2378 350.273 66.7303 351.463 67.6071 352.342C68.484 353.22 69.6735 353.714 70.9145 353.716H76.7265C76.7693 353.845 76.8193 353.98 76.8693 354.109C76.8693 354.109 76.8693 354.109 76.8264 354.109L72.1497 358.243C71.666 358.643 71.2677 359.137 70.9786 359.695C70.6895 360.252 70.5155 360.862 70.467 361.488C70.4184 362.114 70.4963 362.744 70.6959 363.339C70.8956 363.935 71.2129 364.484 71.6291 364.955C72.0453 365.425 72.5519 365.807 73.1187 366.077C73.6854 366.348 74.3008 366.502 74.9282 366.53C75.5557 366.558 76.1823 366.459 76.7709 366.24C77.3595 366.021 77.898 365.686 78.3544 365.254L83.0239 361.12L83.1239 361.02C83.6341 361.292 84.1612 361.53 84.7018 361.734V367.382C84.7491 368.592 85.2629 369.736 86.1354 370.575C87.008 371.414 88.1715 371.883 89.3821 371.883C90.5927 371.883 91.7562 371.414 92.6288 370.575C93.5013 369.736 94.0151 368.592 94.0624 367.382V361.741C94.3908 361.62 94.7121 361.491 95.0263 361.341L99.603 365.29C100.068 365.692 100.608 365.998 101.191 366.191C101.775 366.384 102.39 366.461 103.003 366.416C103.616 366.371 104.214 366.206 104.764 365.93C105.313 365.654 105.802 365.273 106.204 364.808C106.606 364.343 106.912 363.803 107.105 363.22C107.298 362.636 107.375 362.021 107.33 361.408C107.285 360.795 107.12 360.197 106.844 359.647C106.568 359.098 106.187 358.609 105.722 358.207L101.645 354.694C101.795 354.373 101.924 354.044 102.045 353.716H108.05C109.291 353.714 110.48 353.22 111.357 352.342C112.234 351.463 112.726 350.273 112.726 349.032C112.726 348.418 112.605 347.81 112.37 347.242C112.135 346.675 111.791 346.16 111.357 345.725C110.922 345.291 110.407 344.946 109.839 344.711C109.272 344.476 108.664 344.355 108.05 344.355V344.355Z" fill="#FFE18B"/>
<path d="M108.05 344.355H101.988C101.874 344.041 101.745 343.741 101.602 343.442L106.043 339.515C106.927 338.679 107.451 337.534 107.505 336.319C107.559 335.105 107.139 333.917 106.333 333.007C105.528 332.096 104.4 331.535 103.188 331.441C101.976 331.347 100.775 331.728 99.8386 332.503L95.1691 336.637C95.0988 336.705 95.0321 336.777 94.9692 336.851C94.6764 336.716 94.3694 336.594 94.0624 336.48V330.818C94.0151 329.608 93.5013 328.464 92.6288 327.625C91.7562 326.786 90.5927 326.317 89.3821 326.317C88.1715 326.317 87.008 326.786 86.1354 327.625C85.2629 328.464 84.7491 329.608 84.7018 330.818V336.48C84.2734 336.637 83.8522 336.823 83.4381 337.023C83.3046 336.862 83.1616 336.709 83.0097 336.566L78.283 332.489C77.8218 332.059 77.2787 331.727 76.6861 331.512C76.0935 331.298 75.4637 331.205 74.8343 331.239C74.205 331.273 73.589 331.435 73.0234 331.713C72.4578 331.991 71.9542 332.38 71.5426 332.858C71.1311 333.335 70.8201 333.891 70.6284 334.491C70.4367 335.091 70.3681 335.724 70.4268 336.352C70.4855 336.98 70.6702 337.589 70.9699 338.143C71.2697 338.698 71.6782 339.186 72.1711 339.579L76.8907 343.656C76.9318 343.687 76.9747 343.715 77.0192 343.741C76.9335 343.941 76.855 344.148 76.7836 344.355H70.9145C69.6742 344.355 68.4846 344.848 67.6076 345.725C66.7305 346.602 66.2378 347.792 66.2378 349.032C66.2378 350.273 66.7303 351.463 67.6071 352.342C68.484 353.22 69.6735 353.714 70.9145 353.716H76.7265C76.7693 353.845 76.8193 353.98 76.8693 354.109C76.8693 354.109 76.8693 354.109 76.8264 354.109L72.1497 358.243C71.666 358.643 71.2677 359.137 70.9786 359.695C70.6895 360.252 70.5155 360.862 70.467 361.488C70.4184 362.114 70.4963 362.744 70.6959 363.339C70.8956 363.935 71.2129 364.484 71.6291 364.955C72.0453 365.425 72.5519 365.807 73.1187 366.077C73.6854 366.348 74.3008 366.502 74.9282 366.53C75.5557 366.558 76.1823 366.459 76.7709 366.24C77.3595 366.021 77.898 365.686 78.3544 365.254L83.0239 361.12L83.1239 361.02C83.6341 361.292 84.1612 361.53 84.7018 361.734V367.382C84.7491 368.592 85.2629 369.736 86.1354 370.575C87.008 371.414 88.1715 371.883 89.3821 371.883C90.5927 371.883 91.7562 371.414 92.6288 370.575C93.5013 369.736 94.0151 368.592 94.0624 367.382V361.741C94.3908 361.62 94.7121 361.491 95.0263 361.341L99.603 365.29C100.068 365.692 100.608 365.998 101.191 366.191C101.775 366.384 102.39 366.461 103.003 366.416C103.616 366.371 104.214 366.206 104.764 365.93C105.313 365.654 105.802 365.273 106.204 364.808C106.606 364.343 106.912 363.803 107.105 363.22C107.298 362.636 107.375 362.021 107.33 361.408C107.285 360.795 107.12 360.197 106.844 359.647C106.568 359.098 106.187 358.609 105.722 358.207L101.645 354.694C101.795 354.373 101.924 354.044 102.045 353.716H108.05C109.291 353.714 110.48 353.22 111.357 352.342C112.234 351.463 112.726 350.273 112.726 349.032C112.726 348.418 112.605 347.81 112.37 347.242C112.135 346.675 111.791 346.16 111.357 345.725C110.922 345.291 110.407 344.946 109.839 344.711C109.272 344.476 108.664 344.355 108.05 344.355V344.355Z" fill="#FFE18B"/>
<path d="M39.6484 338.037C43.0712 338.037 45.846 335.262 45.846 331.839C45.846 328.416 43.0712 325.642 39.6484 325.642C36.2257 325.642 33.4509 328.416 33.4509 331.839C33.4509 335.262 36.2257 338.037 39.6484 338.037Z" fill="white"/>
<path d="M89.4856 355.615C92.9084 355.615 95.6831 352.841 95.6831 349.418C95.6831 345.995 92.9084 343.22 89.4856 343.22C86.0628 343.22 83.2881 345.995 83.2881 349.418C83.2881 352.841 86.0628 355.615 89.4856 355.615Z" fill="white"/>
<path d="M97.6252 461.451C95.3037 461.451 93.0342 460.763 91.1039 459.473C89.1736 458.183 87.669 456.35 86.7806 454.205C85.8922 452.06 85.6597 449.7 86.1126 447.423C86.5656 445.146 87.6835 443.055 89.3251 441.413C90.9667 439.772 93.0583 438.654 95.3353 438.201C97.6122 437.748 99.9724 437.98 102.117 438.869C104.262 439.757 106.095 441.262 107.385 443.192C108.675 445.122 109.363 447.392 109.363 449.713C109.36 452.825 108.122 455.809 105.921 458.009C103.721 460.21 100.737 461.448 97.6252 461.451V461.451ZM97.6252 440.831C95.8685 440.831 94.1513 441.352 92.6906 442.328C91.2299 443.304 90.0915 444.691 89.4192 446.314C88.7469 447.937 88.571 449.723 88.9138 451.446C89.2565 453.169 90.1024 454.752 91.3446 455.994C92.5868 457.236 94.1695 458.082 95.8924 458.425C97.6154 458.768 99.4013 458.592 101.024 457.919C102.647 457.247 104.035 456.109 105.01 454.648C105.986 453.187 106.507 451.47 106.507 449.713C106.502 447.359 105.564 445.103 103.9 443.439C102.235 441.774 99.9792 440.837 97.6252 440.831V440.831Z" fill="#262626"/>
<path d="M79.1326 480.979C77.5241 480.979 75.9518 480.502 74.6144 479.609C73.2771 478.715 72.2347 477.445 71.6192 475.959C71.0036 474.473 70.8426 472.838 71.1564 471.26C71.4702 469.683 72.2447 468.234 73.3821 467.096C74.5194 465.959 75.9685 465.185 77.546 464.871C79.1236 464.557 80.7587 464.718 82.2447 465.334C83.7308 465.949 85.0009 466.991 85.8945 468.329C86.7881 469.666 87.265 471.238 87.265 472.847C87.2632 475.003 86.4057 477.071 84.881 478.595C83.3563 480.12 81.2889 480.977 79.1326 480.979V480.979ZM79.1326 467.57C78.089 467.57 77.0688 467.88 76.2011 468.46C75.3334 469.039 74.6571 469.864 74.2578 470.828C73.8584 471.792 73.7539 472.853 73.9575 473.876C74.1611 474.9 74.6636 475.84 75.4016 476.578C76.1395 477.316 77.0797 477.818 78.1032 478.022C79.1267 478.226 80.1876 478.121 81.1518 477.722C82.1159 477.322 82.94 476.646 83.5198 475.778C84.0996 474.911 84.409 473.891 84.409 472.847C84.4072 471.448 83.8506 470.107 82.8615 469.118C81.8724 468.129 80.5314 467.572 79.1326 467.57V467.57Z" fill="#262626"/>
</g>
<defs>
<clipPath id="clip0_2006_737">
<rect width="714" height="491" fill="white"/>
</clipPath>
</defs>
</svg>
